<svg width="102" height="47" viewBox="0 0 102 47" fill="none" xmlns="http://www.w3.org/2000/svg">
<path d="M66.0833 20.5833H54.4167V8.91667C54.4167 8.14312 54.1094 7.40125 53.5624 6.85427C53.0154 6.30729 52.2735 6 51.5 6C50.7265 6 49.9846 6.30729 49.4376 6.85427C48.8906 7.40125 48.5833 8.14312 48.5833 8.91667V20.5833H36.9167C36.1431 20.5833 35.4013 20.8906 34.8543 21.4376C34.3073 21.9846 34 22.7265 34 23.5C34 24.2735 34.3073 25.0154 34.8543 25.5624C35.4013 26.1094 36.1431 26.4167 36.9167 26.4167H48.5833V38.0833C48.5833 38.8569 48.8906 39.5988 49.4376 40.1457C49.9846 40.6927 50.7265 41 51.5 41C52.2735 41 53.0154 40.6927 53.5624 40.1457C54.1094 39.5988 54.4167 38.8569 54.4167 38.0833V26.4167H66.0833C66.8569 26.4167 67.5988 26.1094 68.1457 25.5624C68.6927 25.0154 69 24.2735 69 23.5C69 22.7265 68.6927 21.9846 68.1457 21.4376C67.5988 20.8906 66.8569 20.5833 66.0833 20.5833Z" fill="#C50D66"/>
<rect x="0.5" y="0.5" width="101" height="46" rx="9.5" stroke="url(#paint0_linear_11_674)"/>
<defs>
<linearGradient id="paint0_linear_11_674" x1="51" y1="0" x2="51" y2="47" gradientUnits="userSpaceOnUse">
<stop stop-color="#C50D66"/>
<stop offset="1" stop-color="#F07810"/>
</linearGradient>
</defs>
</svg>
