<svg width="102" height="102" viewBox="0 0 102 102" fill="none" xmlns="http://www.w3.org/2000/svg">
<circle cx="50.5" cy="50.5" r="41.5" fill="#F07810"/>
<path d="M68.5 47.5H54.5V33.5C54.5 32.5717 54.1313 31.6815 53.4749 31.0251C52.8185 30.3687 51.9283 30 51 30C50.0717 30 49.1815 30.3687 48.5251 31.0251C47.8687 31.6815 47.5 32.5717 47.5 33.5V47.5H33.5C32.5717 47.5 31.6815 47.8687 31.0251 48.5251C30.3687 49.1815 30 50.0717 30 51C30 51.9283 30.3687 52.8185 31.0251 53.4749C31.6815 54.1313 32.5717 54.5 33.5 54.5H47.5V68.5C47.5 69.4283 47.8687 70.3185 48.5251 70.9749C49.1815 71.6313 50.0717 72 51 72C51.9283 72 52.8185 71.6313 53.4749 70.9749C54.1313 70.3185 54.5 69.4283 54.5 68.5V54.5H68.5C69.4283 54.5 70.3185 54.1313 70.9749 53.4749C71.6313 52.8185 72 51.9283 72 51C72 50.0717 71.6313 49.1815 70.9749 48.5251C70.3185 47.8687 69.4283 47.5 68.5 47.5Z" fill="#F5F4E8"/>
</svg>
