<svg width="200" height="172" viewBox="0 0 200 172" fill="none" xmlns="http://www.w3.org/2000/svg">
<rect x="0.5" y="0.5" width="199" height="171" rx="39.5" stroke="#C50D66"/>
<path d="M130.833 79.8333H106.167V55.1667C106.167 53.5312 105.517 51.9627 104.36 50.8062C103.204 49.6497 101.636 49 100 49C98.3645 49 96.796 49.6497 95.6395 50.8062C94.483 51.9627 93.8333 53.5312 93.8333 55.1667V79.8333H69.1667C67.5312 79.8333 65.9627 80.483 64.8062 81.6395C63.6497 82.796 63 84.3645 63 86C63 87.6355 63.6497 89.204 64.8062 90.3605C65.9627 91.517 67.5312 92.1667 69.1667 92.1667H93.8333V116.833C93.8333 118.469 94.483 120.037 95.6395 121.194C96.796 122.35 98.3645 123 100 123C101.636 123 103.204 122.35 104.36 121.194C105.517 120.037 106.167 118.469 106.167 116.833V92.1667H130.833C132.469 92.1667 134.037 91.517 135.194 90.3605C136.35 89.204 137 87.6355 137 86C137 84.3645 136.35 82.796 135.194 81.6395C134.037 80.483 132.469 79.8333 130.833 79.8333Z" fill="#C50D66"/>
</svg>
