<svg width="81" height="81" viewBox="0 0 81 81" fill="none" xmlns="http://www.w3.org/2000/svg">
<path d="M58.1429 38.1791H29.5714L38.9714 28.8507C39.2392 28.5872 39.4518 28.2736 39.5968 27.928C39.7419 27.5825 39.8166 27.2119 39.8166 26.8376C39.8166 26.4633 39.7419 26.0927 39.5968 25.7472C39.4518 25.4017 39.2392 25.0881 38.9714 24.8245C38.4361 24.2964 37.712 24 36.9571 24C36.2023 24 35.4782 24.2964 34.9429 24.8245L22.6857 37.0166C21.6126 38.0752 21.0064 39.513 21 41.0145C21.0139 42.5062 21.6196 43.9324 22.6857 44.984L34.9429 57.1761C35.2093 57.4387 35.5251 57.6465 35.8725 57.7879C36.2198 57.9292 36.5918 58.0013 36.9672 58C37.3427 57.9987 37.7141 57.924 38.0605 57.7802C38.4068 57.6364 38.7212 57.4263 38.9857 57.162C39.2502 56.8976 39.4597 56.5841 39.6021 56.2394C39.7446 55.8947 39.8172 55.5256 39.8159 55.153C39.8145 54.7804 39.7393 54.4118 39.5944 54.0681C39.4495 53.7244 39.2378 53.4124 38.9714 53.1499L29.5714 43.8499H58.1429C58.9006 43.8499 59.6273 43.5512 60.1632 43.0194C60.699 42.4877 61 41.7665 61 41.0145C61 40.2625 60.699 39.5413 60.1632 39.0096C59.6273 38.4779 58.9006 38.1791 58.1429 38.1791Z" fill="#F5F4E8"/>
</svg>
