<svg width="83" height="83" viewBox="0 0 83 83" fill="none" xmlns="http://www.w3.org/2000/svg">
<circle cx="41.5" cy="41.5" r="41.5" fill="#C50D66"/>
<path d="M58.1429 40.1791H29.5714L38.9714 30.8507C39.2392 30.5872 39.4518 30.2736 39.5968 29.928C39.7419 29.5825 39.8166 29.2119 39.8166 28.8376C39.8166 28.4633 39.7419 28.0927 39.5968 27.7472C39.4518 27.4017 39.2392 27.0881 38.9714 26.8245C38.4361 26.2964 37.712 26 36.9571 26C36.2023 26 35.4782 26.2964 34.9429 26.8245L22.6857 39.0166C21.6126 40.0752 21.0064 41.513 21 43.0145C21.0139 44.5062 21.6196 45.9324 22.6857 46.984L34.9429 59.1761C35.2093 59.4387 35.5251 59.6465 35.8725 59.7879C36.2198 59.9292 36.5918 60.0013 36.9672 60C37.3427 59.9987 37.7141 59.924 38.0605 59.7802C38.4068 59.6364 38.7212 59.4263 38.9857 59.162C39.2502 58.8976 39.4597 58.5841 39.6021 58.2394C39.7446 57.8947 39.8172 57.5256 39.8159 57.153C39.8145 56.7804 39.7393 56.4118 39.5944 56.0681C39.4495 55.7244 39.2378 55.4124 38.9714 55.1499L29.5714 45.8499H58.1429C58.9006 45.8499 59.6273 45.5512 60.1632 45.0194C60.699 44.4877 61 43.7665 61 43.0145C61 42.2625 60.699 41.5413 60.1632 41.0096C59.6273 40.4779 58.9006 40.1791 58.1429 40.1791Z" fill="#F5F4E8"/>
</svg>
