<svg width="200" height="70" viewBox="0 0 200 70" fill="none" xmlns="http://www.w3.org/2000/svg">
<rect width="200" height="70" rx="35" fill="url(#paint0_linear_13_8)"/>
<path d="M56.3352 34.9091C56.3352 37.7642 55.794 40.1932 54.7116 42.196C53.6378 44.1989 52.1719 45.7287 50.3139 46.7855C48.4645 47.8338 46.3849 48.358 44.0753 48.358C41.7486 48.358 39.6605 47.8295 37.8111 46.7727C35.9616 45.7159 34.5 44.1861 33.4261 42.1832C32.3523 40.1804 31.8153 37.7557 31.8153 34.9091C31.8153 32.054 32.3523 29.625 33.4261 27.6222C34.5 25.6193 35.9616 24.0937 37.8111 23.0455C39.6605 21.9886 41.7486 21.4602 44.0753 21.4602C46.3849 21.4602 48.4645 21.9886 50.3139 23.0455C52.1719 24.0937 53.6378 25.6193 54.7116 27.6222C55.794 29.625 56.3352 32.054 56.3352 34.9091ZM50.723 34.9091C50.723 33.0597 50.446 31.5 49.892 30.2301C49.3466 28.9602 48.5753 27.9972 47.5781 27.3409C46.581 26.6847 45.4134 26.3565 44.0753 26.3565C42.7372 26.3565 41.5696 26.6847 40.5724 27.3409C39.5753 27.9972 38.7997 28.9602 38.2457 30.2301C37.7003 31.5 37.4276 33.0597 37.4276 34.9091C37.4276 36.7585 37.7003 38.3182 38.2457 39.5881C38.7997 40.858 39.5753 41.821 40.5724 42.4773C41.5696 43.1335 42.7372 43.4616 44.0753 43.4616C45.4134 43.4616 46.581 43.1335 47.5781 42.4773C48.5753 41.821 49.3466 40.858 49.892 39.5881C50.446 38.3182 50.723 36.7585 50.723 34.9091ZM59.3107 32.6463V28.3636H77.1062V32.6463H70.7781V48H65.5877V32.6463H59.3107ZM92.0156 41.9787L97.3338 28.3636H101.476L93.8182 48H90.2003L82.7216 28.3636H86.8509L92.0156 41.9787ZM85.6108 28.3636V48H80.4077V28.3636H85.6108ZM98.6889 48V28.3636H103.828V48H98.6889ZM116.989 48.3835C114.969 48.3835 113.231 47.9744 111.773 47.1562C110.325 46.3295 109.208 45.1619 108.424 43.6534C107.64 42.1364 107.248 40.3423 107.248 38.2713C107.248 36.2514 107.64 34.4787 108.424 32.9531C109.208 31.4276 110.312 30.2386 111.735 29.3864C113.167 28.5341 114.846 28.108 116.772 28.108C118.067 28.108 119.273 28.3168 120.39 28.7344C121.515 29.1435 122.495 29.7614 123.33 30.5881C124.174 31.4148 124.83 32.4545 125.299 33.7074C125.768 34.9517 126.002 36.4091 126.002 38.0795V39.5753H109.421V36.2003H120.876C120.876 35.4162 120.705 34.7216 120.364 34.1165C120.023 33.5114 119.55 33.0384 118.945 32.6974C118.349 32.348 117.654 32.1733 116.862 32.1733C116.035 32.1733 115.302 32.3651 114.663 32.7486C114.032 33.1236 113.538 33.6307 113.18 34.2699C112.822 34.9006 112.638 35.6037 112.63 36.3793V39.5881C112.63 40.5597 112.809 41.3991 113.167 42.1065C113.533 42.8139 114.049 43.3594 114.714 43.7429C115.379 44.1264 116.167 44.3182 117.079 44.3182C117.684 44.3182 118.238 44.233 118.741 44.0625C119.244 43.892 119.674 43.6364 120.032 43.2955C120.39 42.9545 120.663 42.5369 120.85 42.0426L125.887 42.375C125.631 43.5852 125.107 44.642 124.315 45.5455C123.531 46.4403 122.516 47.1392 121.272 47.642C120.036 48.1364 118.609 48.3835 116.989 48.3835ZM143.222 36.0085V40.2912H132.969V36.0085H143.222ZM134.759 28.3636V48H129.556V28.3636H134.759ZM146.636 28.3636V48H141.471V28.3636H146.636ZM156.46 48.3707C155.207 48.3707 154.091 48.1534 153.111 47.7188C152.131 47.2756 151.355 46.6236 150.784 45.7628C150.222 44.8935 149.94 43.8111 149.94 42.5156C149.94 41.4247 150.141 40.5085 150.541 39.767C150.942 39.0256 151.487 38.429 152.178 37.9773C152.868 37.5256 153.652 37.1847 154.53 36.9545C155.416 36.7244 156.345 36.5625 157.317 36.4688C158.459 36.3494 159.379 36.2386 160.078 36.1364C160.777 36.0256 161.284 35.8636 161.599 35.6506C161.915 35.4375 162.072 35.1222 162.072 34.7045V34.6278C162.072 33.8182 161.817 33.1918 161.305 32.7486C160.803 32.3054 160.087 32.0838 159.158 32.0838C158.178 32.0838 157.398 32.3011 156.818 32.7358C156.239 33.1619 155.855 33.6989 155.668 34.3466L150.631 33.9375C150.886 32.7443 151.389 31.7131 152.139 30.8438C152.889 29.9659 153.857 29.2926 155.041 28.8239C156.234 28.3466 157.615 28.108 159.183 28.108C160.274 28.108 161.318 28.2358 162.315 28.4915C163.321 28.7472 164.212 29.1435 164.987 29.6804C165.771 30.2173 166.389 30.9077 166.841 31.7514C167.293 32.5866 167.518 33.5881 167.518 34.7557V48H162.354V45.277H162.2C161.885 45.8906 161.463 46.4318 160.935 46.9006C160.406 47.3608 159.771 47.723 159.03 47.9872C158.288 48.2429 157.432 48.3707 156.46 48.3707ZM158.02 44.6122C158.821 44.6122 159.528 44.4545 160.142 44.1392C160.756 43.8153 161.237 43.3807 161.587 42.8352C161.936 42.2898 162.111 41.6719 162.111 40.9815V38.8977C161.94 39.0085 161.706 39.1108 161.408 39.2045C161.118 39.2898 160.79 39.3707 160.423 39.4474C160.057 39.5156 159.69 39.5795 159.324 39.6392C158.957 39.6903 158.625 39.7372 158.327 39.7798C157.688 39.8736 157.129 40.0227 156.652 40.2273C156.175 40.4318 155.804 40.7088 155.54 41.0582C155.276 41.3991 155.143 41.8253 155.143 42.3366C155.143 43.0781 155.412 43.6449 155.949 44.0369C156.494 44.4205 157.185 44.6122 158.02 44.6122Z" fill="white"/>
<defs>
<linearGradient id="paint0_linear_13_8" x1="100" y1="0" x2="100" y2="70" gradientUnits="userSpaceOnUse">
<stop stop-color="#C50D66"/>
<stop offset="1" stop-color="#F07810"/>
</linearGradient>
</defs>
</svg>
