<svg width="46" height="48" viewBox="0 0 46 48" fill="none" xmlns="http://www.w3.org/2000/svg">
<ellipse cx="22.6774" cy="23.6755" rx="22.6452" ry="23.4973" fill="#F07810"/>
<g clip-path="url(#clip0_11_671)">
<path d="M22.2581 8.88086C19.5211 8.88086 16.8455 9.72303 14.5697 11.3009C12.2939 12.8787 10.5202 15.1213 9.47279 17.7452C8.42537 20.369 8.15132 23.2562 8.68529 26.0417C9.21926 28.8272 10.5373 31.3858 12.4726 33.394C14.408 35.4022 16.8738 36.7698 19.5583 37.3239C22.2427 37.8779 25.0252 37.5936 27.5539 36.5067C30.0826 35.4199 32.2439 33.5794 33.7646 31.218C35.2852 28.8566 36.0968 26.0804 36.0968 23.2403C36.0928 19.4332 34.6336 15.7832 32.0392 13.0912C29.4448 10.3992 25.9271 8.88498 22.2581 8.88086ZM22.2581 12.4707C24.4119 12.471 26.5116 13.1706 28.2629 14.4715L13.8072 29.4699C12.7006 27.8609 12.0428 25.9666 11.9062 23.995C11.7695 22.0233 12.1592 20.0508 13.0326 18.294C13.9059 16.5373 15.229 15.0643 16.8566 14.037C18.4841 13.0097 20.3531 12.4677 22.2581 12.4707ZM22.2581 34.0099C20.1046 34.0098 18.0052 33.3102 16.2544 32.0092L30.7089 17.0095C31.8159 18.6185 32.4739 20.513 32.6108 22.4848C32.7476 24.4566 32.3579 26.4294 31.4846 28.1863C30.6112 29.9433 29.2879 31.4164 27.6602 32.4438C26.0325 33.4712 24.1633 34.0131 22.2581 34.0099Z" fill="#F5F4E8"/>
</g>
<defs>
<clipPath id="clip0_11_671">
<rect width="27.6774" height="28.7189" fill="white" transform="translate(8.41937 8.88086)"/>
</clipPath>
</defs>
</svg>
