<svg width="300" height="100" viewBox="0 0 300 100" fill="none" xmlns="http://www.w3.org/2000/svg">
<path d="M0 50C0 22.3858 22.3858 0 50 0H250C277.614 0 300 22.3858 300 50C300 77.6142 277.614 100 250 100H50C22.3858 100 0 77.6142 0 50Z" fill="url(#paint0_linear_6_421)"/>
<path d="M57.5327 36.8182V63H52.0611V41.3182H41.4759V63H36.0043V36.8182H57.5327ZM62.7006 70.3636V43.3636H68.07V46.6619H68.3129C68.5515 46.1335 68.8967 45.5966 69.3484 45.0511C69.8086 44.4972 70.4052 44.0369 71.1381 43.6705C71.8796 43.2955 72.8001 43.108 73.8995 43.108C75.3313 43.108 76.6523 43.483 77.8626 44.233C79.0728 44.9744 80.0401 46.0952 80.7646 47.5952C81.489 49.0866 81.8512 50.9574 81.8512 53.2074C81.8512 55.3977 81.4975 57.2472 80.7901 58.7557C80.0913 60.2557 79.1367 61.3935 77.9265 62.169C76.7248 62.9361 75.3782 63.3196 73.8867 63.3196C72.8299 63.3196 71.9308 63.1449 71.1893 62.7955C70.4563 62.446 69.8555 62.0071 69.3867 61.4787C68.918 60.9418 68.56 60.4006 68.3129 59.8551H68.1467V70.3636H62.7006ZM68.0316 53.1818C68.0316 54.3494 68.1935 55.3679 68.5174 56.2372C68.8413 57.1065 69.31 57.7841 69.9237 58.2699C70.5373 58.7472 71.283 58.9858 72.1609 58.9858C73.0472 58.9858 73.7972 58.7429 74.4109 58.2571C75.0245 57.7628 75.489 57.081 75.8043 56.2116C76.1282 55.3338 76.2901 54.3239 76.2901 53.1818C76.2901 52.0483 76.1325 51.0511 75.8171 50.1903C75.5018 49.3295 75.0373 48.6562 74.4237 48.1705C73.81 47.6847 73.0558 47.4418 72.1609 47.4418C71.2745 47.4418 70.5245 47.6761 69.9109 48.1449C69.3058 48.6136 68.8413 49.2784 68.5174 50.1392C68.1935 51 68.0316 52.0142 68.0316 53.1818ZM94.354 63.3835C92.3683 63.3835 90.6509 62.9616 89.2021 62.1179C87.7617 61.2656 86.6495 60.081 85.8654 58.5639C85.0813 57.0384 84.6893 55.2699 84.6893 53.2585C84.6893 51.2301 85.0813 49.4574 85.8654 47.9403C86.6495 46.4148 87.7617 45.2301 89.2021 44.3864C90.6509 43.5341 92.3683 43.108 94.354 43.108C96.3398 43.108 98.0529 43.5341 99.4933 44.3864C100.942 45.2301 102.059 46.4148 102.843 47.9403C103.627 49.4574 104.019 51.2301 104.019 53.2585C104.019 55.2699 103.627 57.0384 102.843 58.5639C102.059 60.081 100.942 61.2656 99.4933 62.1179C98.0529 62.9616 96.3398 63.3835 94.354 63.3835ZM94.3796 59.1648C95.283 59.1648 96.0373 58.9091 96.6424 58.3977C97.2475 57.8778 97.7035 57.1705 98.0103 56.2756C98.3256 55.3807 98.4833 54.3622 98.4833 53.2202C98.4833 52.0781 98.3256 51.0597 98.0103 50.1648C97.7035 49.2699 97.2475 48.5625 96.6424 48.0426C96.0373 47.5227 95.283 47.2628 94.3796 47.2628C93.4677 47.2628 92.7006 47.5227 92.0785 48.0426C91.4648 48.5625 91.0004 49.2699 90.685 50.1648C90.3782 51.0597 90.2248 52.0781 90.2248 53.2202C90.2248 54.3622 90.3782 55.3807 90.685 56.2756C91.0004 57.1705 91.4648 57.8778 92.0785 58.3977C92.7006 58.9091 93.4677 59.1648 94.3796 59.1648ZM106.026 68.7528V58.679H107.534C107.969 58.4062 108.319 57.9716 108.583 57.375C108.855 56.7784 109.077 56.0753 109.248 55.2656C109.426 54.456 109.563 53.5824 109.657 52.6449C109.759 51.6989 109.848 50.7443 109.925 49.7812L110.436 43.3636H125.496V58.679H128.539V68.7528H123.348V63H111.344V68.7528H106.026ZM112.955 58.679H120.357V47.5568H115.064L114.86 49.7812C114.715 51.8778 114.506 53.6591 114.233 55.125C113.961 56.5824 113.534 57.767 112.955 58.679ZM140.585 63.3835C138.599 63.3835 136.881 62.9616 135.433 62.1179C133.992 61.2656 132.88 60.081 132.096 58.5639C131.312 57.0384 130.92 55.2699 130.92 53.2585C130.92 51.2301 131.312 49.4574 132.096 47.9403C132.88 46.4148 133.992 45.2301 135.433 44.3864C136.881 43.5341 138.599 43.108 140.585 43.108C142.57 43.108 144.283 43.5341 145.724 44.3864C147.173 45.2301 148.289 46.4148 149.073 47.9403C149.857 49.4574 150.249 51.2301 150.249 53.2585C150.249 55.2699 149.857 57.0384 149.073 58.5639C148.289 60.081 147.173 61.2656 145.724 62.1179C144.283 62.9616 142.57 63.3835 140.585 63.3835ZM140.61 59.1648C141.513 59.1648 142.268 58.9091 142.873 58.3977C143.478 57.8778 143.934 57.1705 144.241 56.2756C144.556 55.3807 144.714 54.3622 144.714 53.2202C144.714 52.0781 144.556 51.0597 144.241 50.1648C143.934 49.2699 143.478 48.5625 142.873 48.0426C142.268 47.5227 141.513 47.2628 140.61 47.2628C139.698 47.2628 138.931 47.5227 138.309 48.0426C137.695 48.5625 137.231 49.2699 136.915 50.1648C136.609 51.0597 136.455 52.0781 136.455 53.2202C136.455 54.3622 136.609 55.3807 136.915 56.2756C137.231 57.1705 137.695 57.8778 138.309 58.3977C138.931 58.9091 139.698 59.1648 140.61 59.1648ZM152.64 63L152.614 58.679H153.266C153.727 58.679 154.123 58.5682 154.455 58.3466C154.796 58.1165 155.077 57.7457 155.299 57.2344C155.521 56.723 155.695 56.0455 155.823 55.2017C155.951 54.3494 156.036 53.3011 156.079 52.0568L156.398 43.3636H171.33V63H166.14V47.6463H161.295L160.988 53.642C160.911 55.2869 160.711 56.7017 160.387 57.8864C160.072 59.071 159.633 60.0426 159.07 60.8011C158.508 61.5511 157.83 62.1051 157.038 62.4631C156.245 62.821 155.325 63 154.276 63H152.64ZM174.274 63L181.139 52.7855L174.312 43.3636H180.525L185.626 51.0469H186.47V43.3636H191.916V51.0469H192.734L197.835 43.3636H204.048L197.234 52.7855L204.086 63H197.733L192.683 55.3295H191.916V63H186.47V55.3295H185.703L180.627 63H174.274ZM212.361 55.8153L219.43 43.3636H224.8V63H219.609V50.5099L212.565 63H207.158V43.3636H212.361V55.8153ZM227.194 47.6463V43.3636H244.989V47.6463H238.661V63H233.471V47.6463H227.194ZM251.704 49.3977H257.572C260.171 49.3977 262.2 50.0199 263.657 51.2642C265.114 52.5 265.843 54.1534 265.843 56.2244C265.843 57.571 265.515 58.7557 264.859 59.7784C264.202 60.7926 263.256 61.5852 262.021 62.1562C260.785 62.7188 259.302 63 257.572 63H248.29V43.3636H253.494V58.7173H257.572C258.484 58.7173 259.234 58.4872 259.822 58.027C260.41 57.5668 260.708 56.9787 260.717 56.2628C260.708 55.5043 260.41 54.8864 259.822 54.4091C259.234 53.9233 258.484 53.6804 257.572 53.6804H251.704V49.3977Z" fill="white"/>
<defs>
<linearGradient id="paint0_linear_6_421" x1="150" y1="0" x2="150" y2="100" gradientUnits="userSpaceOnUse">
<stop stop-color="#C50D66"/>
<stop offset="1" stop-color="#F07810"/>
</linearGradient>
</defs>
</svg>
