<svg width="200" height="70" viewBox="0 0 200 70" fill="none" xmlns="http://www.w3.org/2000/svg">
<rect width="200" height="70" rx="35" fill="url(#paint0_linear_13_7)"/>
<path d="M28.1009 48.358V43.858H29.5199C30.2273 43.858 30.7983 43.7727 31.233 43.6023C31.6676 43.4233 32.0128 43.1634 32.2685 42.8224C32.5327 42.473 32.7543 42.0384 32.9332 41.5185L33.2528 40.6619L23.7415 21.8182H29.4688L35.6307 34.7045L40.7827 21.8182H46.4332L37.4077 42.8608C36.973 43.8324 36.4574 44.7358 35.8608 45.571C35.2727 46.4062 34.5185 47.0795 33.598 47.5909C32.6776 48.1023 31.5014 48.358 30.0696 48.358H28.1009ZM47.7915 53.7528V43.679H49.3001C49.7347 43.4062 50.0842 42.9716 50.3484 42.375C50.6211 41.7784 50.8427 41.0753 51.0131 40.2656C51.1921 39.456 51.3285 38.5824 51.4222 37.6449C51.5245 36.6989 51.614 35.7443 51.6907 34.7812L52.2021 28.3636H67.2617V43.679H70.3043V53.7528H65.114V48H53.1097V53.7528H47.7915ZM54.7205 43.679H62.1225V32.5568H56.8299L56.6254 34.7812C56.4805 36.8778 56.2717 38.6591 55.9989 40.125C55.7262 41.5824 55.3001 42.767 54.7205 43.679ZM79.0774 48.3707C77.8246 48.3707 76.7081 48.1534 75.728 47.7188C74.7479 47.2756 73.9723 46.6236 73.4013 45.7628C72.8388 44.8935 72.5575 43.8111 72.5575 42.5156C72.5575 41.4247 72.7578 40.5085 73.1584 39.767C73.5589 39.0256 74.1044 38.429 74.7947 37.9773C75.4851 37.5256 76.2692 37.1847 77.147 36.9545C78.0334 36.7244 78.9624 36.5625 79.9339 36.4688C81.076 36.3494 81.9964 36.2386 82.6953 36.1364C83.3942 36.0256 83.9013 35.8636 84.2166 35.6506C84.532 35.4375 84.6896 35.1222 84.6896 34.7045V34.6278C84.6896 33.8182 84.4339 33.1918 83.9226 32.7486C83.4197 32.3054 82.7038 32.0838 81.7749 32.0838C80.7947 32.0838 80.0149 32.3011 79.4354 32.7358C78.8558 33.1619 78.4723 33.6989 78.2848 34.3466L73.2479 33.9375C73.5036 32.7443 74.0064 31.7131 74.7564 30.8438C75.5064 29.9659 76.4737 29.2926 77.6584 28.8239C78.8516 28.3466 80.2322 28.108 81.8004 28.108C82.8913 28.108 83.9354 28.2358 84.9325 28.4915C85.9382 28.7472 86.8288 29.1435 87.6044 29.6804C88.3885 30.2173 89.0064 30.9077 89.4581 31.7514C89.9098 32.5866 90.1357 33.5881 90.1357 34.7557V48H84.9709V45.277H84.8175C84.5021 45.8906 84.0803 46.4318 83.5518 46.9006C83.0234 47.3608 82.3885 47.723 81.647 47.9872C80.9055 48.2429 80.049 48.3707 79.0774 48.3707ZM80.6371 44.6122C81.4382 44.6122 82.1456 44.4545 82.7592 44.1392C83.3729 43.8153 83.8544 43.3807 84.2038 42.8352C84.5533 42.2898 84.728 41.6719 84.728 40.9815V38.8977C84.5575 39.0085 84.3232 39.1108 84.0249 39.2045C83.7351 39.2898 83.407 39.3707 83.0405 39.4474C82.674 39.5156 82.3075 39.5795 81.9411 39.6392C81.5746 39.6903 81.2422 39.7372 80.9439 39.7798C80.3047 39.8736 79.7464 40.0227 79.2692 40.2273C78.7919 40.4318 78.4212 40.7088 78.157 41.0582C77.8928 41.3991 77.7607 41.8253 77.7607 42.3366C77.7607 43.0781 78.0291 43.6449 78.5661 44.0369C79.1115 44.4205 79.8018 44.6122 80.6371 44.6122ZM93.2102 48L93.1847 43.679H93.8366C94.2969 43.679 94.6932 43.5682 95.0256 43.3466C95.3665 43.1165 95.6477 42.7457 95.8693 42.2344C96.0909 41.723 96.2656 41.0455 96.3935 40.2017C96.5213 39.3494 96.6065 38.3011 96.6491 37.0568L96.9688 28.3636H111.901V48H106.71V32.6463H101.865L101.558 38.642C101.482 40.2869 101.281 41.7017 100.957 42.8864C100.642 44.071 100.203 45.0426 99.6406 45.8011C99.0781 46.5511 98.4006 47.1051 97.608 47.4631C96.8153 47.821 95.8949 48 94.8466 48H93.2102ZM121.326 40.8153L128.395 28.3636H133.765V48H128.574V35.5099L121.53 48H116.123V28.3636H121.326V40.8153ZM136.158 32.6463V28.3636H153.954V32.6463H147.626V48H142.435V32.6463H136.158ZM160.669 34.3977H166.537C169.136 34.3977 171.164 35.0199 172.622 36.2642C174.079 37.5 174.808 39.1534 174.808 41.2244C174.808 42.571 174.48 43.7557 173.824 44.7784C173.167 45.7926 172.221 46.5852 170.985 47.1562C169.75 47.7188 168.267 48 166.537 48H157.255V28.3636H162.458V43.7173H166.537C167.449 43.7173 168.199 43.4872 168.787 43.027C169.375 42.5668 169.673 41.9787 169.681 41.2628C169.673 40.5043 169.375 39.8864 168.787 39.4091C168.199 38.9233 167.449 38.6804 166.537 38.6804H160.669V34.3977Z" fill="white"/>
<defs>
<linearGradient id="paint0_linear_13_7" x1="100" y1="0" x2="100" y2="70" gradientUnits="userSpaceOnUse">
<stop stop-color="#C50D66"/>
<stop offset="1" stop-color="#F07810"/>
</linearGradient>
</defs>
</svg>
