<svg width="103" height="37" viewBox="0 0 103 37" fill="none" xmlns="http://www.w3.org/2000/svg">
<rect width="103" height="36.05" rx="18.025" fill="url(#paint0_linear_61_2)"/>
<path d="M20.8541 21.1491V19.2741H21.4453C21.7401 19.2741 21.978 19.2386 22.1591 19.1676C22.3402 19.093 22.4841 18.9847 22.5906 18.8427C22.7007 18.6971 22.793 18.516 22.8676 18.2994L23.0007 17.9425L19.0377 10.0909H21.424L23.9915 15.4602L26.1382 10.0909H28.4926L24.7319 18.8587C24.5508 19.2635 24.336 19.6399 24.0874 19.9879C23.8424 20.3359 23.5281 20.6165 23.1446 20.8295C22.761 21.0426 22.271 21.1491 21.6744 21.1491H20.8541ZM29.0585 23.397V19.1996H29.6871C29.8682 19.0859 30.0138 18.9048 30.1239 18.6562C30.2375 18.4077 30.3298 18.1147 30.4009 17.7773C30.4754 17.44 30.5323 17.076 30.5713 16.6854C30.6139 16.2912 30.6512 15.8935 30.6832 15.4922L30.8963 12.8182H37.1711V19.1996H38.4389V23.397H36.2762V21H31.2745V23.397H29.0585ZM31.9456 19.1996H35.0298V14.5653H32.8245L32.7393 15.4922C32.6789 16.3658 32.5919 17.108 32.4783 17.7188C32.3646 18.326 32.1871 18.8196 31.9456 19.1996ZM42.0943 21.1545C41.5723 21.1545 41.1071 21.0639 40.6987 20.8828C40.2903 20.6982 39.9672 20.4265 39.7293 20.0678C39.4949 19.7056 39.3777 19.2546 39.3777 18.7148C39.3777 18.2603 39.4612 17.8786 39.6281 17.5696C39.795 17.2607 40.0222 17.0121 40.3099 16.8239C40.5975 16.6357 40.9242 16.4936 41.29 16.3977C41.6593 16.3018 42.0464 16.2344 42.4512 16.1953C42.9271 16.1456 43.3106 16.0994 43.6018 16.0568C43.893 16.0107 44.1043 15.9432 44.2357 15.8544C44.367 15.7656 44.4327 15.6342 44.4327 15.4602V15.4283C44.4327 15.0909 44.3262 14.8299 44.1131 14.6452C43.9036 14.4606 43.6053 14.3683 43.2183 14.3683C42.8099 14.3683 42.4849 14.4588 42.2435 14.6399C42.002 14.8175 41.8422 15.0412 41.7641 15.3111L39.6653 15.1406C39.7719 14.6435 39.9814 14.2138 40.2939 13.8516C40.6064 13.4858 41.0094 13.2053 41.5031 13.0099C42.0002 12.8111 42.5755 12.7116 43.2289 12.7116C43.6835 12.7116 44.1185 12.7649 44.5339 12.8714C44.953 12.978 45.3241 13.1431 45.6472 13.3668C45.9739 13.5906 46.2314 13.8782 46.4196 14.2298C46.6078 14.5778 46.7019 14.995 46.7019 15.4815V21H44.5499V19.8654H44.486C44.3546 20.1211 44.1788 20.3466 43.9587 20.5419C43.7385 20.7337 43.4739 20.8846 43.165 20.9947C42.856 21.1012 42.4991 21.1545 42.0943 21.1545ZM42.7442 19.5884C43.078 19.5884 43.3727 19.5227 43.6284 19.3913C43.8841 19.2564 44.0847 19.0753 44.2303 18.848C44.3759 18.6207 44.4487 18.3633 44.4487 18.0756V17.2074C44.3777 17.2536 44.28 17.2962 44.1558 17.3352C44.035 17.3707 43.8983 17.4045 43.7456 17.4364C43.5929 17.4648 43.4402 17.4915 43.2875 17.5163C43.1348 17.5376 42.9963 17.5572 42.872 17.5749C42.6057 17.614 42.3731 17.6761 42.1742 17.7614C41.9754 17.8466 41.8209 17.962 41.7108 18.1076C41.6007 18.2496 41.5457 18.4272 41.5457 18.6403C41.5457 18.9492 41.6575 19.1854 41.8813 19.3487C42.1085 19.5085 42.3962 19.5884 42.7442 19.5884ZM47.983 21L47.9723 19.1996H48.244C48.4358 19.1996 48.6009 19.1534 48.7394 19.0611C48.8814 18.9652 48.9986 18.8107 49.0909 18.5977C49.1833 18.3846 49.2561 18.1023 49.3093 17.7507C49.3626 17.3956 49.3981 16.9588 49.4159 16.4403L49.549 12.8182H55.7706V21H53.608V14.6026H51.5892L51.4613 17.1009C51.4294 17.7862 51.3459 18.3757 51.211 18.8693C51.0796 19.3629 50.8967 19.7678 50.6623 20.0838C50.4279 20.3963 50.1456 20.6271 49.8154 20.7763C49.4851 20.9254 49.1016 21 48.6648 21H47.983ZM59.6977 18.0064L62.6434 12.8182H64.8806V21H62.718V15.7958L59.783 21H57.5298V12.8182H59.6977V18.0064ZM65.8781 14.6026V12.8182H73.2928V14.6026H70.6561V21H68.4935V14.6026H65.8781ZM76.0907 15.3324H78.5356C79.6187 15.3324 80.4639 15.5916 81.0711 16.1101C81.6784 16.625 81.982 17.3139 81.982 18.1768C81.982 18.7379 81.8453 19.2315 81.5719 19.6577C81.2984 20.0803 80.9042 20.4105 80.3893 20.6484C79.8744 20.8828 79.2565 21 78.5356 21H74.6684V12.8182H76.8364V19.2156H78.5356C78.9156 19.2156 79.2281 19.1197 79.4731 18.9279C79.7182 18.7362 79.8425 18.4911 79.846 18.1928C79.8425 17.8768 79.7182 17.6193 79.4731 17.4205C79.2281 17.218 78.9156 17.1168 78.5356 17.1168H76.0907V15.3324Z" fill="white"/>
<defs>
<linearGradient id="paint0_linear_61_2" x1="51.5" y1="0" x2="51.5" y2="36.05" gradientUnits="userSpaceOnUse">
<stop stop-color="#C50D66"/>
<stop offset="1" stop-color="#F07810"/>
</linearGradient>
</defs>
</svg>
