<svg width="51" height="53" viewBox="0 0 51 53" fill="none" xmlns="http://www.w3.org/2000/svg">
<ellipse cx="27.6774" cy="29.3244" rx="22.6452" ry="23.4973" fill="#F07810"/>
<g clip-path="url(#clip0_11_668)">
<path d="M19.5852 46.7544L39.6951 27.1412C40.5256 26.3107 41.0871 25.2295 41.3087 24.0343C41.5302 22.8391 41.4018 21.5837 40.9398 20.4269C40.4777 19.2702 39.7027 18.2641 38.7129 17.5359C37.7231 16.8078 36.5629 16.3903 35.3792 16.3364C34.5977 16.2971 33.8246 16.4187 33.1044 16.6942C32.3842 16.9697 31.731 17.3937 31.1826 17.9417L11.0484 37.5776L19.5852 46.7544ZM17.562 37.9183L21.506 34.0709L23.5153 36.2323L19.5713 40.0797L17.562 37.9183ZM34.4251 21.4706C34.6907 21.216 35.0463 21.0833 35.4174 21.1004C35.7885 21.1175 36.1464 21.2829 36.4163 21.5622C36.6792 21.8447 36.8304 22.2175 36.8375 22.6004C36.8445 22.9834 36.7069 23.3461 36.4541 23.6107L26.7621 33.0652L24.7528 30.9038L34.4251 21.4706Z" fill="#F5F4E8"/>
</g>
<defs>
<clipPath id="clip0_11_668">
<rect width="39.5854" height="39.9239" fill="white" transform="matrix(0.989775 -0.142641 0.132668 0.991161 0 6.25195)"/>
</clipPath>
</defs>
</svg>
