<svg width="48" height="48" viewBox="0 0 48 48" fill="none" xmlns="http://www.w3.org/2000/svg">
<circle cx="24" cy="24" r="24" fill="#EEC60A"/>
<path d="M38.6339 21.5115L34.4277 17.3054C34.2232 17.1078 33.9493 16.9985 33.665 17.001C33.3807 17.0035 33.1087 17.1175 32.9077 17.3186C32.7066 17.5196 32.5926 17.7916 32.5901 18.0759C32.5876 18.3602 32.6969 18.6341 32.8945 18.8386L37.1006 23.0448C37.2256 23.1722 37.3348 23.3142 37.4259 23.4677C37.4096 23.4677 37.3966 23.459 37.3804 23.459L20.3736 23.4937C20.086 23.4937 19.8102 23.6079 19.6069 23.8113C19.4035 24.0146 19.2893 24.2904 19.2893 24.578C19.2893 24.8656 19.4035 25.1414 19.6069 25.3448C19.8102 25.5481 20.086 25.6624 20.3736 25.6624L37.3739 25.6277C37.4042 25.6277 37.4292 25.6125 37.4584 25.6103C37.3622 25.7937 37.2403 25.9624 37.0963 26.1113L32.8901 30.3174C32.7865 30.4174 32.7039 30.5371 32.6471 30.6694C32.5903 30.8017 32.5604 30.944 32.5591 31.0879C32.5579 31.2319 32.5853 31.3747 32.6398 31.508C32.6943 31.6412 32.7749 31.7623 32.8767 31.8641C32.9785 31.9659 33.0996 32.0464 33.2328 32.101C33.3661 32.1555 33.5089 32.1829 33.6528 32.1817C33.7968 32.1804 33.9391 32.1505 34.0714 32.0937C34.2037 32.0368 34.3233 31.9542 34.4234 31.8507L38.6295 27.6445C39.4426 26.8311 39.8994 25.7281 39.8994 24.578C39.8994 23.4279 39.4426 22.3249 38.6295 21.5115H38.6339Z" fill="#F5F4E8"/>
<path d="M21.4699 35.4218H19.3012C18.4385 35.4218 17.611 35.0791 17.001 34.469C16.3909 33.859 16.0482 33.0316 16.0482 32.1688V16.9881C16.0482 16.1253 16.3909 15.2979 17.001 14.6879C17.611 14.0778 18.4385 13.7351 19.3012 13.7351H21.4699C21.7575 13.7351 22.0333 13.6208 22.2366 13.4175C22.44 13.2141 22.5542 12.9383 22.5542 12.6507C22.5542 12.3632 22.44 12.0874 22.2366 11.884C22.0333 11.6806 21.7575 11.5664 21.4699 11.5664H19.3012C17.8638 11.5681 16.4858 12.1399 15.4694 13.1563C14.453 14.1727 13.8812 15.5507 13.8795 16.9881L13.8795 32.1688C13.8812 33.6062 14.453 34.9842 15.4694 36.0006C16.4858 37.017 17.8638 37.5888 19.3012 37.5905H21.4699C21.7575 37.5905 22.0333 37.4763 22.2366 37.2729C22.44 37.0696 22.5542 36.7937 22.5542 36.5062C22.5542 36.2186 22.44 35.9428 22.2366 35.7394C22.0333 35.5361 21.7575 35.4218 21.4699 35.4218Z" fill="#F5F4E8"/>
</svg>
