<svg width="200" height="70" viewBox="0 0 200 70" fill="none" xmlns="http://www.w3.org/2000/svg">
<rect width="200" height="70" rx="35" fill="url(#paint0_linear_14_96)"/>
<path d="M43.2756 48V21.8182H53.7585C55.6847 21.8182 57.2912 22.1037 58.5781 22.6747C59.8651 23.2457 60.8324 24.0384 61.4801 25.0526C62.1278 26.0582 62.4517 27.2173 62.4517 28.5298C62.4517 29.5526 62.2472 30.4517 61.8381 31.2273C61.429 31.9943 60.8665 32.625 60.1506 33.1193C59.4432 33.6051 58.6335 33.9503 57.7216 34.1548V34.4105C58.7188 34.4531 59.652 34.7344 60.5213 35.2543C61.3991 35.7741 62.1108 36.5028 62.6562 37.4403C63.2017 38.3693 63.4744 39.4773 63.4744 40.7642C63.4744 42.1534 63.1293 43.3935 62.4389 44.4844C61.7571 45.5668 60.7472 46.4233 59.4091 47.054C58.071 47.6847 56.4219 48 54.4616 48H43.2756ZM48.8111 43.4744H53.3239C54.8665 43.4744 55.9915 43.1804 56.6989 42.5923C57.4063 41.9957 57.7599 41.2031 57.7599 40.2145C57.7599 39.4901 57.5852 38.8509 57.2358 38.2969C56.8864 37.7429 56.3878 37.3082 55.7401 36.9929C55.1009 36.6776 54.3381 36.5199 53.4517 36.5199H48.8111V43.4744ZM48.8111 32.7741H52.9148C53.6733 32.7741 54.3466 32.642 54.9347 32.3778C55.5313 32.1051 56 31.7216 56.3409 31.2273C56.6903 30.733 56.8651 30.1406 56.8651 29.4503C56.8651 28.5043 56.5284 27.7415 55.8551 27.1619C55.1903 26.5824 54.2443 26.2926 53.017 26.2926H48.8111V32.7741ZM70.3874 34.3977H76.2553C78.8548 34.3977 80.8832 35.0199 82.3406 36.2642C83.7979 37.5 84.5266 39.1534 84.5266 41.2244C84.5266 42.571 84.1985 43.7557 83.5423 44.7784C82.886 45.7926 81.94 46.5852 80.7042 47.1562C79.4684 47.7188 77.9854 48 76.2553 48H66.9741V28.3636H72.1772V43.7173H76.2553C77.1673 43.7173 77.9173 43.4872 78.5053 43.027C79.0934 42.5668 79.3917 41.9787 79.4002 41.2628C79.3917 40.5043 79.0934 39.8864 78.5053 39.4091C77.9173 38.9233 77.1673 38.6804 76.2553 38.6804H70.3874V34.3977ZM86.636 48V28.3636H92.082V48H86.636ZM101.638 40.8153L108.708 28.3636H114.077V48H108.887V35.5099L101.843 48H96.435V28.3636H101.638V40.8153ZM107.775 21.5114H111.571C111.563 23.0625 110.988 24.3111 109.846 25.2571C108.712 26.2031 107.178 26.6761 105.243 26.6761C103.3 26.6761 101.762 26.2031 100.628 25.2571C99.4947 24.3111 98.9279 23.0625 98.9279 21.5114H102.699C102.691 22.0994 102.878 22.6278 103.262 23.0966C103.654 23.5653 104.314 23.7997 105.243 23.7997C106.147 23.7997 106.794 23.5696 107.186 23.1094C107.578 22.6491 107.775 22.1165 107.775 21.5114ZM116.471 32.6463V28.3636H134.266V32.6463H127.938V48H122.748V32.6463H116.471ZM142.771 40.8153L149.841 28.3636H155.21V48H150.02V35.5099L142.975 48H137.568V28.3636H142.771V40.8153Z" fill="white"/>
<defs>
<linearGradient id="paint0_linear_14_96" x1="100" y1="0" x2="100" y2="70" gradientUnits="userSpaceOnUse">
<stop stop-color="#C50D66"/>
<stop offset="1" stop-color="#F07810"/>
</linearGradient>
</defs>
</svg>
