<svg width="46" height="48" viewBox="0 0 46 48" fill="none" xmlns="http://www.w3.org/2000/svg">
<ellipse cx="22.6774" cy="23.8484" rx="22.6452" ry="23.4973" fill="#EEC60A"/>
<g clip-path="url(#clip0_11_670)">
<path d="M36.9355 24.708C36.9253 23.5625 36.4809 22.4674 35.6984 21.6598L26.7033 12.2977C26.3104 11.8922 25.779 11.6646 25.225 11.6646C24.6711 11.6646 24.1397 11.8922 23.7468 12.2977C23.5503 12.5001 23.3943 12.7409 23.2879 13.0062C23.1814 13.2715 23.1266 13.5561 23.1266 13.8435C23.1266 14.1309 23.1814 14.4155 23.2879 14.6808C23.3943 14.9462 23.5503 15.187 23.7468 15.3894L30.6452 22.5307H9.67746C9.12136 22.5307 8.58804 22.7601 8.19482 23.1684C7.8016 23.5767 7.58069 24.1305 7.58069 24.708C7.58069 25.2854 7.8016 25.8392 8.19482 26.2475C8.58804 26.6558 9.12136 26.8852 9.67746 26.8852H30.6452L23.7468 34.0484C23.352 34.4554 23.1291 35.0087 23.1271 35.5865C23.1251 36.1643 23.3443 36.7192 23.7363 37.1291C24.1284 37.5391 24.6612 37.7706 25.2176 37.7726C25.774 37.7747 26.3084 37.5471 26.7033 37.14L35.6984 27.7779C36.486 26.965 36.9308 25.861 36.9355 24.708Z" fill="#F5F4E8"/>
</g>
<defs>
<clipPath id="clip0_11_670">
<rect width="28.5161" height="26.1081" fill="white" transform="translate(8.41937 11.6646)"/>
</clipPath>
</defs>
</svg>
