<svg width="83" height="83" viewBox="0 0 83 83" fill="none" xmlns="http://www.w3.org/2000/svg">
<ellipse cx="41.5" cy="41.006" rx="41.5" ry="41.006" fill="#C50D66"/>
<path fill-rule="evenodd" clip-rule="evenodd" d="M40.9989 15C26.0887 15 14 27.0865 14 41.9989C14 53.9279 21.7352 64.048 32.4627 67.6186C33.8127 67.8683 34.3077 67.0336 34.3077 66.3204C34.3077 65.6769 34.2829 63.5507 34.2717 61.2941C26.7615 62.9275 25.1753 58.1082 25.1753 58.1082C23.9468 54.9876 22.1784 54.1574 22.1784 54.1574C19.7283 52.4812 22.3629 52.5172 22.3629 52.5172C25.074 52.7084 26.5005 55.3003 26.5005 55.3003C28.9079 59.4266 32.816 58.2342 34.3572 57.5435C34.6001 55.7975 35.2999 54.6073 36.0716 53.9324C30.0756 53.2507 23.7713 50.9355 23.7713 40.5904C23.7713 37.6431 24.8265 35.2334 26.5545 33.3435C26.2732 32.6618 25.3485 29.9169 26.8155 26.1978C26.8155 26.1978 29.0834 25.4733 34.2424 28.9652C36.3956 28.3667 38.704 28.0675 40.9989 28.0562C43.2938 28.0675 45.6044 28.3667 47.7621 28.9652C52.9144 25.4711 55.18 26.1978 55.18 26.1978C56.6492 29.9169 55.7245 32.6618 55.4455 33.3435C57.1757 35.2334 58.2242 37.6431 58.2242 40.5904C58.2242 50.9603 51.9087 53.2439 45.8969 53.9121C46.8644 54.7491 47.7283 56.3938 47.7283 58.9114C47.7283 62.5248 47.6968 65.4316 47.6968 66.3204C47.6968 67.0381 48.1828 67.8818 49.5508 67.6163C60.2738 64.0412 68 53.9256 68 42.0011C67.9977 27.0887 55.909 15 40.9989 15Z" fill="#F5F4E8"/>
<path d="M24.2258 53.7659C24.1673 53.9009 23.9558 53.9414 23.7623 53.8492C23.5666 53.7614 23.4563 53.5769 23.5193 53.4442C23.5778 53.3069 23.7893 53.2687 23.9851 53.3609C24.1808 53.4464 24.2933 53.6309 24.2258 53.7659Z" fill="#F5F4E8"/>
<path d="M25.3193 54.9853C25.191 55.1045 24.939 55.0483 24.768 54.8616C24.5903 54.6726 24.5588 54.4206 24.6893 54.3013C24.822 54.1821 25.065 54.2383 25.2428 54.4273C25.4205 54.6141 25.4542 54.8638 25.3193 54.9853Z" fill="#F5F4E8"/>
<path d="M26.3835 56.5398C26.217 56.6545 25.9471 56.5465 25.7806 56.308C25.6141 56.0673 25.6141 55.7793 25.7851 55.6646C25.9516 55.5498 26.2193 55.6533 26.388 55.8918C26.5523 56.1348 26.5523 56.4228 26.3835 56.5398Z" fill="#F5F4E8"/>
<path d="M27.8415 58.0431C27.693 58.2074 27.378 58.1624 27.1485 57.9396C26.9123 57.7214 26.847 57.4132 26.9955 57.2489C27.1463 57.0847 27.4635 57.1319 27.6952 57.3524C27.9292 57.5706 27.999 57.8811 27.8415 58.0431Z" fill="#F5F4E8"/>
<path d="M29.8551 58.9136C29.7899 59.1251 29.4862 59.2218 29.1802 59.1319C28.8742 59.0396 28.6739 58.7921 28.7369 58.5784C28.7999 58.3646 29.1059 58.2656 29.4142 58.3624C29.7179 58.4524 29.9181 58.6999 29.8551 58.9136Z" fill="#F5F4E8"/>
<path d="M32.0645 59.0756C32.0713 59.2983 31.8125 59.4828 31.4908 59.4873C31.1691 59.494 30.9058 59.314 30.9036 59.0958C30.9036 58.8708 31.1578 58.6886 31.4795 58.6818C31.8013 58.6751 32.0645 58.8551 32.0645 59.0756Z" fill="#F5F4E8"/>
<path d="M34.1209 58.727C34.1591 58.943 33.9364 59.168 33.6169 59.2265C33.3042 59.285 33.0139 59.15 32.9734 58.934C32.9352 58.7113 33.1624 58.4885 33.4752 58.43C33.7924 58.3738 34.0804 58.5043 34.1209 58.727Z" fill="#F5F4E8"/>
</svg>
