<svg width="411" height="288" viewBox="0 0 411 288" fill="none" xmlns="http://www.w3.org/2000/svg">
<path d="M0 0H411V228C411 261.137 384.137 288 351 288H60C26.8629 288 0 261.137 0 228V0Z" fill="url(#paint0_linear_6_391)"/>
<g clip-path="url(#clip0_6_391)">
<path d="M355.52 203.697C353.331 202.079 350.589 201.397 347.897 201.799C345.205 202.201 342.782 203.655 341.161 205.842L302.394 258.226C301.283 259.719 300.479 261.417 300.028 263.223C299.578 265.028 299.489 266.905 299.769 268.745L300.628 274.498C300.739 275.241 301.141 275.91 301.745 276.357C302.349 276.804 303.106 276.993 303.849 276.882L309.602 276.022C311.443 275.753 313.213 275.12 314.808 274.162C316.403 273.204 317.792 271.939 318.895 270.44L357.665 218.053C359.281 215.864 359.964 213.123 359.562 210.431C359.159 207.74 357.706 205.318 355.52 203.697ZM314.341 267.07C312.995 268.876 310.992 270.079 308.765 270.418L305.814 270.859L305.373 267.908C305.206 266.804 305.258 265.678 305.529 264.594C305.799 263.511 306.282 262.492 306.949 261.596L336.37 221.841L343.778 227.324L314.341 267.07ZM353.108 214.683L347.135 222.757L339.729 217.289L345.705 209.214C346.065 208.729 346.517 208.319 347.035 208.008C347.554 207.697 348.128 207.492 348.726 207.403C349.324 207.314 349.934 207.344 350.52 207.491C351.107 207.638 351.658 207.899 352.144 208.259C352.629 208.619 353.039 209.072 353.35 209.59C353.66 210.109 353.866 210.683 353.955 211.281C354.043 211.879 354.013 212.489 353.866 213.075C353.72 213.661 353.459 214.213 353.098 214.698L353.108 214.683Z" fill="#F5F4E8" fill-opacity="0.52"/>
</g>
<g clip-path="url(#clip1_6_391)">
<path d="M390.65 25.3499C389.774 24.516 388.612 24.0508 387.402 24.0508C386.193 24.0508 385.031 24.516 384.155 25.3499L367.344 42.1499C366.822 42.0493 366.29 41.999 365.757 41.9999C364.675 41.9968 363.602 42.2085 362.602 42.6228C361.602 43.0371 360.693 43.6457 359.93 44.4134C357.05 47.2994 356.279 56.4419 356.15 58.2449L356.036 59.9639L357.753 59.8439C359.553 59.7209 368.703 58.9544 371.586 56.0699C372.54 55.1135 373.244 53.9374 373.636 52.645C374.029 51.3526 374.098 49.9836 373.836 48.6584L390.65 31.8449C391.509 30.9824 391.991 29.8147 391.991 28.5974C391.991 27.3801 391.509 26.2124 390.65 25.3499ZM369.465 53.9489C368.07 55.3424 363.065 56.2889 359.304 56.6939C359.729 52.7939 360.719 47.8679 362.051 46.5344C363.05 45.6343 364.357 45.1521 365.702 45.1872C367.046 45.2223 368.326 45.7721 369.277 46.7231C370.228 47.6742 370.778 48.9539 370.813 50.2984C370.848 51.6429 370.366 52.9496 369.465 53.9489ZM388.532 29.7239L372.6 45.6569C372.009 44.7607 371.244 43.9916 370.35 43.3949L386.276 27.4679C386.579 27.1785 386.982 27.0171 387.401 27.0171C387.82 27.0171 388.223 27.1785 388.526 27.4679C388.675 27.6155 388.793 27.791 388.874 27.9844C388.955 28.1777 388.997 28.3851 388.997 28.5947C388.998 28.8043 388.957 29.0119 388.877 29.2056C388.797 29.3994 388.68 29.5755 388.532 29.7239Z" fill="#F5F4E8" fill-opacity="0.52"/>
</g>
<g clip-path="url(#clip2_6_391)">
<path d="M21.65 129.65C22.7201 128.631 24.1413 128.062 25.6192 128.062C27.097 128.062 28.5182 128.631 29.5883 129.65L50.1345 150.183C50.7737 150.06 51.4232 149.999 52.0742 150C53.3975 149.996 54.7084 150.255 55.931 150.761C57.1535 151.268 58.2635 152.012 59.1967 152.95C62.7167 156.477 63.659 167.651 63.8167 169.855L63.956 171.956L61.8568 171.809C59.6568 171.659 48.4735 170.722 44.9498 167.197C43.7842 166.028 42.9238 164.59 42.4443 163.011C41.9648 161.431 41.8808 159.758 42.1998 158.138L21.65 137.588C20.6001 136.534 20.0106 135.107 20.0106 133.619C20.0106 132.131 20.6001 130.704 21.65 129.65ZM47.5422 164.604C49.2472 166.308 55.365 167.464 59.9612 167.959C59.4423 163.193 58.2323 157.172 56.6043 155.542C55.3829 154.442 53.7858 153.853 52.1426 153.896C50.4993 153.939 48.9352 154.611 47.7728 155.773C46.6104 156.935 45.9385 158.499 45.8956 160.143C45.8527 161.786 46.4421 163.383 47.5422 164.604ZM24.2387 134.996L43.7105 154.47C44.434 153.374 45.3689 152.434 46.4605 151.705L26.996 132.239C26.6256 131.885 26.1331 131.688 25.621 131.688C25.1088 131.688 24.6164 131.885 24.246 132.239C24.0641 132.419 23.9197 132.634 23.8208 132.87C23.722 133.106 23.6708 133.36 23.6701 133.616C23.6694 133.872 23.7193 134.126 23.8169 134.363C23.9144 134.599 24.0578 134.815 24.2387 134.996Z" fill="#F5F4E8" fill-opacity="0.52"/>
</g>
<path d="M82.8777 143H73.4316L85.7008 106.636H97.4018L109.671 143H100.225L91.6845 115.798H91.4004L82.8777 143ZM81.617 128.689H101.361V135.365H81.617V128.689ZM122.269 127.446V143H113.586V115.727H121.843V120.734H122.144C122.748 119.065 123.778 117.757 125.234 116.81C126.69 115.852 128.424 115.372 130.436 115.372C132.354 115.372 134.017 115.804 135.426 116.668C136.846 117.521 137.947 118.716 138.728 120.255C139.521 121.782 139.912 123.569 139.9 125.617V143H131.218V127.322C131.229 125.807 130.845 124.623 130.063 123.771C129.294 122.918 128.223 122.492 126.85 122.492C125.938 122.492 125.133 122.693 124.435 123.096C123.748 123.487 123.216 124.049 122.837 124.783C122.47 125.517 122.28 126.404 122.269 127.446ZM145.276 143V115.727H153.958V143H145.276ZM149.626 112.549C148.406 112.549 147.359 112.147 146.483 111.342C145.607 110.525 145.169 109.542 145.169 108.394C145.169 107.258 145.607 106.287 146.483 105.482C147.359 104.665 148.406 104.257 149.626 104.257C150.857 104.257 151.904 104.665 152.768 105.482C153.644 106.287 154.082 107.258 154.082 108.394C154.082 109.542 153.644 110.525 152.768 111.342C151.904 112.147 150.857 112.549 149.626 112.549ZM159.485 143V115.727H167.741V120.734H168.043C168.611 119.077 169.57 117.769 170.919 116.81C172.269 115.852 173.878 115.372 175.749 115.372C177.643 115.372 179.264 115.857 180.614 116.828C181.963 117.799 182.821 119.101 183.188 120.734H183.472C183.981 119.113 184.976 117.817 186.455 116.846C187.935 115.863 189.681 115.372 191.693 115.372C194.274 115.372 196.369 116.201 197.979 117.858C199.589 119.503 200.394 121.764 200.394 124.641V143H191.711V126.629C191.711 125.268 191.362 124.232 190.664 123.522C189.965 122.8 189.06 122.439 187.947 122.439C186.751 122.439 185.81 122.83 185.124 123.611C184.449 124.38 184.112 125.416 184.112 126.718V143H175.767V126.54C175.767 125.274 175.423 124.274 174.737 123.54C174.05 122.806 173.145 122.439 172.02 122.439C171.262 122.439 170.594 122.622 170.014 122.989C169.434 123.344 168.978 123.853 168.646 124.516C168.327 125.179 168.167 125.96 168.167 126.86V143H159.485ZM213.462 143.462C211.722 143.462 210.177 143.172 208.828 142.592C207.49 142 206.431 141.112 205.649 139.928C204.88 138.733 204.495 137.235 204.495 135.436C204.495 133.921 204.762 132.643 205.294 131.601C205.827 130.559 206.561 129.713 207.496 129.062C208.431 128.411 209.508 127.92 210.727 127.588C211.947 127.245 213.249 127.014 214.634 126.896C216.184 126.754 217.433 126.606 218.38 126.452C219.327 126.286 220.014 126.055 220.44 125.759C220.878 125.451 221.097 125.019 221.097 124.463V124.374C221.097 123.463 220.783 122.759 220.156 122.261C219.528 121.764 218.682 121.516 217.617 121.516C216.468 121.516 215.545 121.764 214.847 122.261C214.148 122.759 213.704 123.445 213.515 124.321L205.507 124.037C205.744 122.38 206.354 120.9 207.336 119.598C208.33 118.284 209.692 117.254 211.42 116.509C213.16 115.751 215.249 115.372 217.688 115.372C219.428 115.372 221.032 115.579 222.499 115.994C223.967 116.396 225.246 116.988 226.335 117.769C227.424 118.539 228.264 119.486 228.856 120.61C229.46 121.735 229.762 123.019 229.762 124.463V143H221.594V139.2H221.381C220.896 140.124 220.274 140.905 219.517 141.544C218.771 142.183 217.889 142.663 216.871 142.982C215.865 143.302 214.728 143.462 213.462 143.462ZM216.143 137.78C217.078 137.78 217.919 137.59 218.664 137.212C219.422 136.833 220.026 136.312 220.475 135.649C220.925 134.974 221.15 134.193 221.15 133.305V130.713C220.901 130.843 220.6 130.962 220.244 131.068C219.901 131.175 219.522 131.275 219.108 131.37C218.694 131.465 218.268 131.548 217.83 131.619C217.392 131.69 216.972 131.755 216.569 131.814C215.752 131.944 215.054 132.145 214.474 132.418C213.906 132.69 213.468 133.045 213.16 133.483C212.864 133.909 212.716 134.418 212.716 135.01C212.716 135.91 213.036 136.596 213.675 137.07C214.326 137.543 215.149 137.78 216.143 137.78ZM250.465 115.727V122.119H233.259V115.727H250.465ZM236.864 109.193H245.546V134.424C245.546 134.957 245.629 135.389 245.795 135.72C245.972 136.04 246.227 136.271 246.558 136.413C246.89 136.543 247.286 136.608 247.748 136.608C248.079 136.608 248.429 136.578 248.796 136.519C249.174 136.448 249.459 136.389 249.648 136.342L250.962 142.609C250.548 142.728 249.962 142.876 249.204 143.053C248.458 143.231 247.565 143.343 246.523 143.391C244.487 143.485 242.741 143.249 241.285 142.68C239.841 142.1 238.734 141.201 237.965 139.982C237.207 138.762 236.84 137.229 236.864 135.383V109.193ZM254.895 143V115.727H263.577V143H254.895ZM259.245 112.549C258.026 112.549 256.978 112.147 256.102 111.342C255.226 110.525 254.788 109.542 254.788 108.394C254.788 107.258 255.226 106.287 256.102 105.482C256.978 104.665 258.026 104.257 259.245 104.257C260.476 104.257 261.523 104.665 262.388 105.482C263.264 106.287 263.702 107.258 263.702 108.394C263.702 109.542 263.264 110.525 262.388 111.342C261.523 112.147 260.476 112.549 259.245 112.549ZM281.835 143.515C278.97 143.515 276.508 142.929 274.448 141.757C272.4 140.573 270.82 138.928 269.707 136.821C268.607 134.702 268.056 132.246 268.056 129.452C268.056 126.647 268.607 124.191 269.707 122.084C270.82 119.965 272.4 118.32 274.448 117.148C276.508 115.964 278.97 115.372 281.835 115.372C284.699 115.372 287.155 115.964 289.203 117.148C291.263 118.32 292.843 119.965 293.944 122.084C295.057 124.191 295.613 126.647 295.613 129.452C295.613 132.246 295.057 134.702 293.944 136.821C292.843 138.928 291.263 140.573 289.203 141.757C287.155 142.929 284.699 143.515 281.835 143.515ZM281.888 136.963C282.929 136.963 283.811 136.643 284.533 136.004C285.255 135.365 285.806 134.477 286.185 133.341C286.575 132.205 286.771 130.891 286.771 129.399C286.771 127.884 286.575 126.558 286.185 125.422C285.806 124.286 285.255 123.398 284.533 122.759C283.811 122.119 282.929 121.8 281.888 121.8C280.811 121.8 279.899 122.119 279.153 122.759C278.42 123.398 277.857 124.286 277.467 125.422C277.088 126.558 276.898 127.884 276.898 129.399C276.898 130.891 277.088 132.205 277.467 133.341C277.857 134.477 278.42 135.365 279.153 136.004C279.899 136.643 280.811 136.963 281.888 136.963ZM308.743 127.446V143H300.061V115.727H308.317V120.734H308.619C309.223 119.065 310.252 117.757 311.708 116.81C313.164 115.852 314.899 115.372 316.911 115.372C318.828 115.372 320.492 115.804 321.9 116.668C323.321 117.521 324.422 118.716 325.203 120.255C325.996 121.782 326.386 123.569 326.375 125.617V143H317.692V127.322C317.704 125.807 317.319 124.623 316.538 123.771C315.769 122.918 314.697 122.492 313.324 122.492C312.413 122.492 311.608 122.693 310.909 123.096C310.223 123.487 309.69 124.049 309.311 124.783C308.944 125.517 308.755 126.404 308.743 127.446ZM120.153 204V167.636H135.175C137.897 167.636 140.247 168.169 142.224 169.234C144.212 170.288 145.745 171.762 146.823 173.656C147.9 175.538 148.438 177.728 148.438 180.225C148.438 182.735 147.888 184.93 146.787 186.812C145.698 188.683 144.141 190.133 142.117 191.163C140.093 192.192 137.69 192.707 134.908 192.707H125.64V185.783H133.275C134.601 185.783 135.707 185.552 136.595 185.09C137.495 184.629 138.176 183.983 138.637 183.155C139.099 182.314 139.33 181.338 139.33 180.225C139.33 179.101 139.099 178.13 138.637 177.313C138.176 176.485 137.495 175.845 136.595 175.396C135.696 174.946 134.589 174.721 133.275 174.721H128.943V204H120.153ZM152.771 204V176.727H161.205V181.699H161.489C161.986 179.9 162.797 178.562 163.921 177.686C165.046 176.798 166.354 176.354 167.845 176.354C168.248 176.354 168.662 176.384 169.088 176.443C169.514 176.491 169.911 176.567 170.278 176.674V184.22C169.863 184.078 169.319 183.966 168.644 183.883C167.981 183.8 167.39 183.759 166.869 183.759C165.839 183.759 164.91 183.989 164.081 184.451C163.264 184.901 162.619 185.534 162.146 186.351C161.684 187.156 161.453 188.103 161.453 189.192V204H152.771ZM185.13 204.515C182.266 204.515 179.804 203.929 177.744 202.757C175.696 201.573 174.116 199.928 173.003 197.821C171.902 195.702 171.352 193.246 171.352 190.452C171.352 187.647 171.902 185.191 173.003 183.084C174.116 180.965 175.696 179.32 177.744 178.148C179.804 176.964 182.266 176.372 185.13 176.372C187.995 176.372 190.451 176.964 192.499 178.148C194.559 179.32 196.139 180.965 197.24 183.084C198.352 185.191 198.909 187.647 198.909 190.452C198.909 193.246 198.352 195.702 197.24 197.821C196.139 199.928 194.559 201.573 192.499 202.757C190.451 203.929 187.995 204.515 185.13 204.515ZM185.184 197.963C186.225 197.963 187.107 197.643 187.829 197.004C188.551 196.365 189.102 195.477 189.481 194.341C189.871 193.205 190.066 191.891 190.066 190.399C190.066 188.884 189.871 187.558 189.481 186.422C189.102 185.286 188.551 184.398 187.829 183.759C187.107 183.119 186.225 182.8 185.184 182.8C184.107 182.8 183.195 183.119 182.449 183.759C181.715 184.398 181.153 185.286 180.763 186.422C180.384 187.558 180.194 188.884 180.194 190.399C180.194 191.891 180.384 193.205 180.763 194.341C181.153 195.477 181.715 196.365 182.449 197.004C183.195 197.643 184.107 197.963 185.184 197.963ZM203.357 176.727H212.039V205.136C212.039 207.385 211.578 209.173 210.654 210.499C209.743 211.824 208.453 212.777 206.783 213.357C205.114 213.937 203.144 214.227 200.871 214.227C200.563 214.227 200.273 214.221 200.001 214.21C199.729 214.198 199.433 214.186 199.113 214.174V207.587C199.326 207.61 199.515 207.628 199.681 207.64C199.847 207.652 200.013 207.658 200.178 207.658C201.374 207.658 202.203 207.433 202.664 206.983C203.126 206.545 203.357 205.87 203.357 204.959V176.727ZM207.689 173.549C206.47 173.549 205.422 173.147 204.546 172.342C203.67 171.525 203.232 170.542 203.232 169.394C203.232 168.258 203.67 167.287 204.546 166.482C205.422 165.665 206.47 165.257 207.689 165.257C208.92 165.257 209.968 165.665 210.832 166.482C211.708 167.287 212.146 168.258 212.146 169.394C212.146 170.542 211.708 171.525 210.832 172.342C209.968 173.147 208.92 173.549 207.689 173.549ZM230.314 204.515C227.461 204.515 224.999 203.953 222.928 202.828C220.868 201.692 219.282 200.076 218.169 197.981C217.068 195.874 216.518 193.37 216.518 190.47C216.518 187.653 217.074 185.191 218.187 183.084C219.3 180.965 220.868 179.32 222.892 178.148C224.916 176.964 227.302 176.372 230.048 176.372C231.989 176.372 233.765 176.674 235.375 177.278C236.984 177.881 238.375 178.775 239.547 179.959C240.719 181.143 241.63 182.604 242.282 184.344C242.933 186.073 243.258 188.055 243.258 190.293V192.459H219.554V187.416H235.179C235.167 186.493 234.948 185.67 234.522 184.948C234.096 184.226 233.51 183.664 232.764 183.261C232.031 182.847 231.184 182.64 230.225 182.64C229.255 182.64 228.385 182.859 227.615 183.297C226.846 183.723 226.236 184.309 225.786 185.055C225.337 185.789 225.1 186.623 225.076 187.558V192.69C225.076 193.802 225.295 194.779 225.733 195.619C226.171 196.448 226.793 197.093 227.598 197.555C228.402 198.016 229.361 198.247 230.474 198.247C231.243 198.247 231.942 198.141 232.569 197.928C233.197 197.714 233.735 197.401 234.185 196.987C234.635 196.572 234.972 196.063 235.197 195.46L243.169 195.69C242.838 197.478 242.11 199.034 240.985 200.36C239.873 201.674 238.411 202.698 236.6 203.432C234.789 204.154 232.693 204.515 230.314 204.515ZM260.423 204.515C257.547 204.515 255.079 203.923 253.019 202.739C250.971 201.556 249.397 199.91 248.296 197.803C247.195 195.684 246.645 193.234 246.645 190.452C246.645 187.659 247.195 185.209 248.296 183.102C249.409 180.983 250.989 179.331 253.037 178.148C255.097 176.964 257.553 176.372 260.406 176.372C262.927 176.372 265.123 176.828 266.993 177.739C268.875 178.651 270.343 179.941 271.396 181.61C272.462 183.267 273.024 185.214 273.083 187.452H264.969C264.803 186.055 264.33 184.96 263.548 184.167C262.779 183.374 261.773 182.977 260.53 182.977C259.524 182.977 258.642 183.261 257.884 183.83C257.127 184.386 256.535 185.214 256.109 186.315C255.694 187.404 255.487 188.754 255.487 190.364C255.487 191.973 255.694 193.335 256.109 194.447C256.535 195.548 257.127 196.383 257.884 196.951C258.642 197.507 259.524 197.786 260.53 197.786C261.335 197.786 262.045 197.614 262.661 197.271C263.288 196.927 263.803 196.424 264.205 195.761C264.608 195.087 264.862 194.27 264.969 193.311H273.083C273 195.56 272.438 197.525 271.396 199.206C270.367 200.887 268.917 202.195 267.046 203.13C265.188 204.053 262.98 204.515 260.423 204.515ZM292.921 176.727V183.119H275.715V176.727H292.921ZM279.32 170.193H288.002V195.424C288.002 195.957 288.085 196.389 288.251 196.72C288.429 197.04 288.683 197.271 289.014 197.413C289.346 197.543 289.742 197.608 290.204 197.608C290.536 197.608 290.885 197.578 291.252 197.519C291.63 197.448 291.915 197.389 292.104 197.342L293.418 203.609C293.004 203.728 292.418 203.876 291.66 204.053C290.914 204.231 290.021 204.343 288.979 204.391C286.943 204.485 285.197 204.249 283.741 203.68C282.297 203.1 281.19 202.201 280.421 200.982C279.663 199.762 279.296 198.229 279.32 196.383V170.193Z" fill="#F5F4E8"/>
<g clip-path="url(#clip3_6_391)">
<path d="M71.8124 257C71.4043 257 71.0055 256.878 70.6674 256.65C70.3293 256.421 70.0675 256.097 69.9157 255.718L68.1925 251.404L63.8723 249.585C63.5018 249.421 63.1878 249.152 62.9699 248.81C62.7519 248.469 62.6397 248.07 62.6474 247.665C62.655 247.26 62.7821 246.866 63.0128 246.533C63.2434 246.2 63.5673 245.943 63.9438 245.793L68.2068 244.178L69.9157 239.907C70.0728 239.534 70.3366 239.215 70.674 238.991C71.0114 238.767 71.4074 238.648 71.8124 238.648C72.2174 238.648 72.6134 238.767 72.9508 238.991C73.2881 239.215 73.5519 239.534 73.7091 239.907L75.4261 244.195L79.7136 245.912C80.0877 246.068 80.4071 246.332 80.6317 246.669C80.8564 247.007 80.9762 247.403 80.9762 247.808C80.9762 248.214 80.8564 248.61 80.6317 248.948C80.4071 249.285 80.0877 249.549 79.7136 249.705L75.4261 251.422L73.7091 255.71C73.5586 256.09 73.2973 256.416 72.9591 256.646C72.6209 256.877 72.2214 257 71.8124 257ZM52.4166 250.875C51.5345 250.886 50.6727 250.61 49.9602 250.09C49.2477 249.57 48.7227 248.833 48.4639 247.99L45.1686 237.686L34.8317 234.227C33.9974 233.948 33.2733 233.412 32.7641 232.694C32.2548 231.977 31.9867 231.116 31.9985 230.237C32.0104 229.357 32.3015 228.504 32.8298 227.801C33.3581 227.098 34.0964 226.58 34.9378 226.324L45.1931 223.192L48.6476 212.873C48.9045 212.026 49.4358 211.288 50.158 210.775C50.8801 210.263 51.7522 210.005 52.6371 210.042C53.5193 210.043 54.3773 210.33 55.0829 210.859C55.7884 211.389 56.3035 212.133 56.5509 212.98L59.6788 223.219L69.9483 226.506C70.7767 226.784 71.4968 227.315 72.007 228.024C72.5172 228.733 72.7917 229.585 72.7917 230.458C72.7917 231.332 72.5172 232.184 72.007 232.893C71.4968 233.602 70.7767 234.133 69.9483 234.411L59.6604 237.702L56.3692 247.99C56.1104 248.833 55.5854 249.57 54.8729 250.09C54.1604 250.61 53.2986 250.886 52.4166 250.875ZM73.8541 222.292C73.3989 222.292 72.9568 222.14 72.598 221.86C72.2392 221.58 71.9842 221.188 71.8736 220.746L71.1448 217.827L68.2191 217.041C67.7793 216.922 67.3917 216.661 67.1178 216.297C66.8439 215.933 66.6995 215.488 66.7075 215.033C66.7154 214.578 66.8754 214.138 67.1618 213.784C67.4483 213.43 67.8449 213.182 68.2885 213.08L71.1468 212.416L71.8736 209.546C71.9843 209.104 72.2393 208.712 72.5981 208.432C72.9569 208.152 73.3989 208 73.8541 208C74.3092 208 74.7512 208.152 75.1101 208.432C75.4689 208.712 75.7238 209.104 75.8345 209.546L76.5572 212.441L79.4523 213.165C79.8938 213.276 80.2856 213.531 80.5656 213.89C80.8456 214.249 80.9976 214.691 80.9976 215.146C80.9976 215.601 80.8456 216.043 80.5656 216.402C80.2856 216.761 79.8938 217.016 79.4523 217.126L76.5572 217.851L75.8345 220.746C75.7239 221.188 75.4689 221.58 75.1101 221.86C74.7513 222.14 74.3092 222.292 73.8541 222.292Z" fill="#F5F4E8" fill-opacity="0.52"/>
</g>
<g clip-path="url(#clip4_6_391)">
<path d="M363.313 112C363.771 112 364.218 112.137 364.598 112.393C364.977 112.65 365.271 113.014 365.442 113.439L367.376 118.281L372.225 120.323C372.641 120.507 372.993 120.81 373.238 121.193C373.483 121.576 373.609 122.023 373.6 122.478C373.591 122.932 373.449 123.374 373.19 123.748C372.931 124.122 372.567 124.411 372.145 124.579L367.36 126.392L365.442 131.186C365.265 131.605 364.969 131.962 364.59 132.214C364.212 132.465 363.767 132.599 363.313 132.599C362.858 132.599 362.414 132.465 362.035 132.214C361.656 131.962 361.36 131.605 361.184 131.186L359.256 126.373L354.444 124.446C354.024 124.27 353.666 123.975 353.413 123.596C353.161 123.217 353.027 122.772 353.027 122.317C353.027 121.862 353.161 121.417 353.413 121.038C353.666 120.66 354.024 120.364 354.444 120.188L359.256 118.261L361.184 113.448C361.353 113.021 361.646 112.655 362.026 112.397C362.405 112.139 362.854 112 363.313 112ZM385.083 118.875C386.074 118.863 387.041 119.172 387.841 119.756C388.64 120.34 389.23 121.167 389.52 122.113L393.219 133.679L404.822 137.561C405.758 137.874 406.571 138.477 407.142 139.282C407.714 140.087 408.015 141.053 408.002 142.04C407.988 143.028 407.662 143.985 407.069 144.775C406.476 145.564 405.647 146.145 404.702 146.432L393.191 149.948L389.314 161.53C389.026 162.481 388.429 163.31 387.619 163.885C386.808 164.46 385.829 164.75 384.836 164.708C383.846 164.707 382.883 164.385 382.091 163.791C381.299 163.196 380.721 162.361 380.443 161.411L376.932 149.918L365.405 146.228C364.475 145.916 363.667 145.32 363.094 144.524C362.522 143.728 362.213 142.772 362.213 141.792C362.213 140.811 362.522 139.855 363.094 139.059C363.667 138.263 364.475 137.667 365.405 137.355L376.953 133.661L380.647 122.113C380.937 121.167 381.527 120.34 382.326 119.756C383.126 119.172 384.093 118.863 385.083 118.875ZM361.021 150.958C361.532 150.958 362.028 151.129 362.431 151.443C362.834 151.758 363.12 152.198 363.244 152.693L364.062 155.97L367.346 156.852C367.84 156.985 368.275 157.279 368.582 157.687C368.89 158.095 369.052 158.595 369.043 159.106C369.034 159.617 368.854 160.11 368.533 160.507C368.211 160.905 367.766 161.183 367.268 161.298L364.06 162.043L363.244 165.265C363.12 165.761 362.834 166.201 362.431 166.515C362.028 166.829 361.532 167 361.021 167C360.51 167 360.014 166.829 359.611 166.515C359.208 166.201 358.922 165.761 358.798 165.265L357.987 162.016L354.737 161.202C354.242 161.078 353.802 160.792 353.488 160.389C353.173 159.986 353.003 159.49 353.003 158.979C353.003 158.468 353.173 157.972 353.488 157.569C353.802 157.167 354.242 156.88 354.737 156.756L357.987 155.943L358.798 152.693C358.922 152.198 359.208 151.758 359.611 151.443C360.014 151.129 360.51 150.958 361.021 150.958Z" fill="#F5F4E8" fill-opacity="0.52"/>
</g>
<g clip-path="url(#clip5_6_391)">
<path d="M291.833 23.6667C295.423 23.6667 298.333 20.7566 298.333 17.1667C298.333 13.5769 295.423 10.6667 291.833 10.6667C288.243 10.6667 285.333 13.5769 285.333 17.1667C285.333 20.7566 288.243 23.6667 291.833 23.6667Z" fill="#F5F4E8" fill-opacity="0.5"/>
<path d="M270.167 10.6667C273.757 10.6667 276.667 7.7566 276.667 4.16675C276.667 0.576897 273.757 -2.33325 270.167 -2.33325C266.577 -2.33325 263.667 0.576897 263.667 4.16675C263.667 7.7566 266.577 10.6667 270.167 10.6667Z" fill="#F5F4E8" fill-opacity="0.5"/>
<path d="M248.5 23.6667C252.09 23.6667 255 20.7566 255 17.1667C255 13.5769 252.09 10.6667 248.5 10.6667C244.91 10.6667 242 13.5769 242 17.1667C242 20.7566 244.91 23.6667 248.5 23.6667Z" fill="#F5F4E8" fill-opacity="0.5"/>
<path d="M248.5 49.6667C252.09 49.6667 255 46.7566 255 43.1667C255 39.5769 252.09 36.6667 248.5 36.6667C244.91 36.6667 242 39.5769 242 43.1667C242 46.7566 244.91 49.6667 248.5 49.6667Z" fill="#F5F4E8" fill-opacity="0.5"/>
<path d="M268.36 80.0001C258 79.9991 247.876 76.9037 239.287 71.1107C230.699 65.3177 224.036 57.0913 220.154 47.4863C216.271 37.8813 215.347 27.3356 217.498 17.2016C219.649 7.06751 224.779 -2.19294 232.228 -9.39228C237.233 -14.2685 243.177 -18.0755 249.699 -20.5816C256.221 -23.0876 263.185 -24.2404 270.167 -23.9696C283.361 -23.3538 295.842 -17.8034 305.136 -8.41845C314.43 0.966461 319.859 13.5008 320.347 26.7001C320.523 33.4312 319.382 40.1319 316.988 46.4254C316.501 47.7076 315.699 48.8467 314.656 49.7379C313.614 50.6292 312.364 51.2439 311.021 51.5257C309.657 51.8263 308.239 51.7769 306.898 51.3821C305.558 50.9874 304.339 50.2602 303.356 49.2681L302.922 48.8347C300.753 46.6652 297.986 45.1905 294.976 44.5984C291.965 44.0064 288.846 44.3238 286.016 45.5102C283.187 46.6967 280.774 48.6984 279.086 51.2606C277.398 53.8228 276.51 56.8295 276.537 59.8977L276.71 79.4671L272.706 79.8007C271.263 79.9047 269.824 80.0001 268.36 80.0001ZM268.36 -15.3333C256.867 -15.385 245.824 -10.8691 237.661 -2.77913C229.498 5.31088 224.883 16.3123 224.831 27.8051C224.78 39.2978 229.295 50.3403 237.385 58.5035C245.475 66.6666 256.477 71.2817 267.97 71.3334L267.866 59.9584C267.846 56.7561 268.46 53.5815 269.673 50.6178C270.886 47.654 272.674 44.9597 274.933 42.6901C279.459 38.1704 285.593 35.6318 291.989 35.6318C298.385 35.6318 304.52 38.1704 309.045 42.6901L309.106 42.7507C310.955 37.6806 311.83 32.3071 311.684 26.9124C311.279 15.9167 306.758 5.47447 299.017 -2.34514C291.276 -10.1647 280.88 -14.791 269.889 -15.3073C269.374 -15.3333 268.867 -15.3333 268.355 -15.3333H268.36Z" fill="#F5F4E8" fill-opacity="0.5"/>
</g>
<g clip-path="url(#clip6_6_391)">
<path d="M124.271 246.458C122.579 246.458 121.208 245.087 121.208 243.396C121.208 241.704 122.579 240.333 124.271 240.333C125.962 240.333 127.333 241.704 127.333 243.396C127.333 245.087 125.962 246.458 124.271 246.458Z" fill="#F5F4E8" fill-opacity="0.5"/>
<path d="M134.479 240.333C132.788 240.333 131.417 238.962 131.417 237.271C131.417 235.579 132.788 234.208 134.479 234.208C136.171 234.208 137.542 235.579 137.542 237.271C137.542 238.962 136.171 240.333 134.479 240.333Z" fill="#F5F4E8" fill-opacity="0.5"/>
<path d="M144.688 246.458C142.996 246.458 141.625 245.087 141.625 243.396C141.625 241.704 142.996 240.333 144.688 240.333C146.379 240.333 147.75 241.704 147.75 243.396C147.75 245.087 146.379 246.458 144.688 246.458Z" fill="#F5F4E8" fill-opacity="0.5"/>
<path d="M144.688 258.708C142.996 258.708 141.625 257.337 141.625 255.646C141.625 253.954 142.996 252.583 144.688 252.583C146.379 252.583 147.75 253.954 147.75 255.646C147.75 257.337 146.379 258.708 144.688 258.708Z" fill="#F5F4E8" fill-opacity="0.5"/>
<path d="M135.331 273C140.212 273 144.981 271.541 149.028 268.812C153.075 266.082 156.214 262.206 158.043 257.681C159.872 253.156 160.308 248.187 159.294 243.412C158.281 238.638 155.864 234.274 152.354 230.882C149.996 228.585 147.196 226.791 144.123 225.611C141.05 224.43 137.769 223.887 134.479 224.014C128.263 224.304 122.382 226.92 118.003 231.341C113.624 235.763 111.066 241.669 110.837 247.888C110.754 251.059 111.291 254.216 112.419 257.181C112.649 257.785 113.026 258.322 113.518 258.742C114.009 259.162 114.598 259.451 115.23 259.584C115.873 259.726 116.541 259.703 117.173 259.517C117.804 259.331 118.379 258.988 118.842 258.521L119.046 258.316C120.068 257.294 121.372 256.599 122.79 256.32C124.209 256.041 125.678 256.191 127.012 256.75C128.345 257.309 129.481 258.252 130.277 259.459C131.072 260.667 131.49 262.083 131.478 263.529L131.396 272.749L133.283 272.906C133.963 272.955 134.64 273 135.331 273ZM135.331 228.083C140.745 228.059 145.948 230.187 149.794 233.998C153.64 237.81 155.815 242.993 155.839 248.408C155.863 253.823 153.736 259.026 149.924 262.872C146.113 266.718 140.929 268.892 135.514 268.917L135.563 263.557C135.573 262.049 135.283 260.553 134.712 259.156C134.14 257.76 133.298 256.491 132.233 255.421C130.101 253.292 127.211 252.096 124.197 252.096C121.184 252.096 118.294 253.292 116.161 255.421L116.133 255.45C115.262 253.061 114.85 250.529 114.918 247.988C115.109 242.807 117.239 237.887 120.886 234.203C124.533 230.519 129.431 228.339 134.61 228.096C134.853 228.083 135.092 228.083 135.333 228.083H135.331Z" fill="#F5F4E8" fill-opacity="0.5"/>
</g>
<g clip-path="url(#clip7_6_391)">
<path d="M97 15C90.8688 15 84.8753 16.8181 79.7773 20.2244C74.6794 23.6308 70.7061 28.4723 68.3597 34.1368C66.0134 39.8013 65.3995 46.0344 66.5957 52.0478C67.7918 58.0612 70.7443 63.5849 75.0797 67.9203C79.4151 72.2557 84.9388 75.2082 90.9522 76.4043C96.9656 77.6005 103.199 76.9866 108.863 74.6403C114.528 72.2939 119.369 68.3206 122.776 63.2227C126.182 58.1248 128 52.1312 128 46C127.991 37.781 124.722 29.9012 118.911 24.0895C113.099 18.2778 105.219 15.0089 97 15ZM119.338 33.0833H111.017C109.155 28.7665 106.702 24.7291 103.73 21.0863C110.308 22.8764 115.916 27.1868 119.338 33.0833ZM108.625 46C108.604 48.6302 108.189 51.2424 107.395 53.75H86.6047C85.8107 51.2424 85.3962 48.6302 85.375 46C85.3962 43.3698 85.8107 40.7576 86.6047 38.25H107.395C108.189 40.7576 108.604 43.3698 108.625 46ZM88.6765 58.9167H105.324C103.131 63.2456 100.328 67.2372 97 70.769C93.6711 67.2382 90.8678 63.2464 88.6765 58.9167ZM88.6765 33.0833C90.8692 28.7544 93.6723 24.7628 97 21.231C100.329 24.7618 103.132 28.7536 105.324 33.0833H88.6765ZM90.2833 21.0863C87.3065 24.7283 84.8495 28.7658 82.9828 33.0833H74.6619C78.0871 27.1841 83.7001 22.8734 90.2833 21.0863ZM72.3576 38.25H81.2417C80.572 40.7795 80.2248 43.3834 80.2083 46C80.2248 48.6166 80.572 51.2205 81.2417 53.75H72.3576C70.7697 48.7053 70.7697 43.2947 72.3576 38.25ZM74.6619 58.9167H82.9828C84.8495 63.2342 87.3065 67.2717 90.2833 70.9137C83.7001 69.1266 78.0871 64.8159 74.6619 58.9167ZM103.73 70.9137C106.702 67.2709 109.155 63.2335 111.017 58.9167H119.338C115.916 64.8132 110.308 69.1236 103.73 70.9137ZM121.642 53.75H112.758C113.428 51.2205 113.775 48.6166 113.792 46C113.775 43.3834 113.428 40.7795 112.758 38.25H121.637C123.225 43.2947 123.225 48.7053 121.637 53.75H121.642Z" fill="#F5F4E8" fill-opacity="0.52"/>
</g>
<defs>
<linearGradient id="paint0_linear_6_391" x1="43.3833" y1="25.2" x2="410.81" y2="210.115" gradientUnits="userSpaceOnUse">
<stop stop-color="#F07810"/>
<stop offset="1" stop-color="#C50D66"/>
</linearGradient>
<clipPath id="clip0_6_391">
<rect width="68" height="68" fill="white" transform="translate(291 210.047) rotate(-8.49654)"/>
</clipPath>
<clipPath id="clip1_6_391">
<rect width="36" height="36" fill="white" transform="translate(356 24)"/>
</clipPath>
<clipPath id="clip2_6_391">
<rect width="44" height="44" fill="white" transform="matrix(-1 0 0 1 64 128)"/>
</clipPath>
<clipPath id="clip3_6_391">
<rect width="49" height="49" fill="white" transform="translate(32 208)"/>
</clipPath>
<clipPath id="clip4_6_391">
<rect width="55" height="55" fill="white" transform="translate(408 167) rotate(-180)"/>
</clipPath>
<clipPath id="clip5_6_391">
<rect width="104" height="104" fill="white" transform="translate(216 -24)"/>
</clipPath>
<clipPath id="clip6_6_391">
<rect width="49" height="49" fill="white" transform="matrix(-1 0 0 1 160 224)"/>
</clipPath>
<clipPath id="clip7_6_391">
<rect width="62" height="62" fill="white" transform="translate(66 15)"/>
</clipPath>
</defs>
</svg>
