<svg width="300" height="100" viewBox="0 0 300 100" fill="none" xmlns="http://www.w3.org/2000/svg">
<path d="M0 50C0 22.3858 22.3858 0 50 0H250C277.614 0 300 22.3858 300 50C300 77.6142 277.614 100 250 100H50C22.3858 100 0 77.6142 0 50Z" fill="url(#paint0_linear_6_353)"/>
<path d="M88.2756 64V37.8182H98.7585C100.685 37.8182 102.291 38.1037 103.578 38.6747C104.865 39.2457 105.832 40.0384 106.48 41.0526C107.128 42.0582 107.452 43.2173 107.452 44.5298C107.452 45.5526 107.247 46.4517 106.838 47.2273C106.429 47.9943 105.866 48.625 105.151 49.1193C104.443 49.6051 103.634 49.9503 102.722 50.1548V50.4105C103.719 50.4531 104.652 50.7344 105.521 51.2543C106.399 51.7741 107.111 52.5028 107.656 53.4403C108.202 54.3693 108.474 55.4773 108.474 56.7642C108.474 58.1534 108.129 59.3935 107.439 60.4844C106.757 61.5668 105.747 62.4233 104.409 63.054C103.071 63.6847 101.422 64 99.4616 64H88.2756ZM93.8111 59.4744H98.3239C99.8665 59.4744 100.991 59.1804 101.699 58.5923C102.406 57.9957 102.76 57.2031 102.76 56.2145C102.76 55.4901 102.585 54.8509 102.236 54.2969C101.886 53.7429 101.388 53.3082 100.74 52.9929C100.101 52.6776 99.3381 52.5199 98.4517 52.5199H93.8111V59.4744ZM93.8111 48.7741H97.9148C98.6733 48.7741 99.3466 48.642 99.9347 48.3778C100.531 48.1051 101 47.7216 101.341 47.2273C101.69 46.733 101.865 46.1406 101.865 45.4503C101.865 44.5043 101.528 43.7415 100.855 43.1619C100.19 42.5824 99.2443 42.2926 98.017 42.2926H93.8111V48.7741ZM120.846 64.3835C118.86 64.3835 117.143 63.9616 115.694 63.1179C114.254 62.2656 113.142 61.081 112.358 59.5639C111.574 58.0384 111.181 56.2699 111.181 54.2585C111.181 52.2301 111.574 50.4574 112.358 48.9403C113.142 47.4148 114.254 46.2301 115.694 45.3864C117.143 44.5341 118.86 44.108 120.846 44.108C122.832 44.108 124.545 44.5341 125.985 45.3864C127.434 46.2301 128.551 47.4148 129.335 48.9403C130.119 50.4574 130.511 52.2301 130.511 54.2585C130.511 56.2699 130.119 58.0384 129.335 59.5639C128.551 61.081 127.434 62.2656 125.985 63.1179C124.545 63.9616 122.832 64.3835 120.846 64.3835ZM120.872 60.1648C121.775 60.1648 122.529 59.9091 123.135 59.3977C123.74 58.8778 124.196 58.1705 124.502 57.2756C124.818 56.3807 124.975 55.3622 124.975 54.2202C124.975 53.0781 124.818 52.0597 124.502 51.1648C124.196 50.2699 123.74 49.5625 123.135 49.0426C122.529 48.5227 121.775 48.2628 120.872 48.2628C119.96 48.2628 119.193 48.5227 118.571 49.0426C117.957 49.5625 117.493 50.2699 117.177 51.1648C116.87 52.0597 116.717 53.0781 116.717 54.2202C116.717 55.3622 116.87 56.3807 117.177 57.2756C117.493 58.1705 117.957 58.8778 118.571 59.3977C119.193 59.9091 119.96 60.1648 120.872 60.1648ZM139.255 56.8153L146.325 44.3636H151.694V64H146.504V51.5099L139.46 64H134.052V44.3636H139.255V56.8153ZM145.392 37.5114H149.189C149.18 39.0625 148.605 40.3111 147.463 41.2571C146.329 42.2031 144.795 42.6761 142.86 42.6761C140.917 42.6761 139.379 42.2031 138.245 41.2571C137.112 40.3111 136.545 39.0625 136.545 37.5114H140.316C140.308 38.0994 140.495 38.6278 140.879 39.0966C141.271 39.5653 141.931 39.7997 142.86 39.7997C143.764 39.7997 144.412 39.5696 144.804 39.1094C145.196 38.6491 145.392 38.1165 145.392 37.5114ZM154.088 48.6463V44.3636H171.884V48.6463H165.555V64H160.365V48.6463H154.088ZM180.388 56.8153L187.458 44.3636H192.827V64H187.637V51.5099L180.593 64H175.185V44.3636H180.388V56.8153Z" fill="white"/>
<defs>
<linearGradient id="paint0_linear_6_353" x1="150" y1="0" x2="150" y2="100" gradientUnits="userSpaceOnUse">
<stop stop-color="#C50D66"/>
<stop offset="1" stop-color="#F07810"/>
</linearGradient>
</defs>
</svg>
