<svg width="554" height="278" viewBox="0 0 554 278" fill="none" xmlns="http://www.w3.org/2000/svg">
<rect x="3.5" y="3.5" width="531" height="171" rx="46.5" fill="#F5F4E8" stroke="#C50D66" stroke-width="7"/>
<path d="M59.9712 102.017V90.0994H61.9457C62.618 89.6165 63.2335 88.9347 63.7923 88.054C64.351 87.1638 64.8292 85.9375 65.2269 84.375C65.6246 82.803 65.9087 80.7481 66.0792 78.2102L66.9031 65.9091H86.1502V90.0994H89.332V101.989H83.4229V95H65.8803V102.017H59.9712ZM69.0479 90.0994H80.2411V70.9801H72.4428L71.9883 78.2102C71.8652 80.1326 71.6616 81.8371 71.3775 83.3239C71.1029 84.8106 70.7667 86.1127 70.369 87.2301C69.9807 88.3381 69.5404 89.2945 69.0479 90.0994ZM91.6793 95L91.6509 90.1989H92.3754C92.8867 90.1989 93.3271 90.0758 93.6964 89.8295C94.0752 89.5739 94.3877 89.1619 94.6339 88.5938C94.8801 88.0256 95.0742 87.2727 95.2163 86.3352C95.3583 85.3883 95.453 84.2235 95.5004 82.8409L95.8555 73.1818H112.446V95H106.679V77.9403H101.296L100.955 84.6023C100.87 86.4299 100.647 88.0019 100.287 89.3182C99.9369 90.6345 99.4492 91.714 98.8242 92.5568C98.1992 93.3902 97.4464 94.0057 96.5657 94.4034C95.685 94.8011 94.6623 95 93.4975 95H91.6793ZM129.922 95V77.9261H125.831C124.723 77.9261 123.88 78.1818 123.302 78.6932C122.725 79.2045 122.44 79.8106 122.45 80.5114C122.44 81.2216 122.715 81.8229 123.274 82.3153C123.842 82.7983 124.675 83.0398 125.774 83.0398H131.939V87.1307H125.774C123.908 87.1307 122.294 86.8466 120.93 86.2784C119.566 85.7102 118.515 84.9195 117.777 83.9062C117.038 82.8835 116.673 81.6951 116.683 80.3409C116.673 78.9205 117.038 77.6752 117.777 76.6051C118.515 75.5256 119.571 74.6875 120.944 74.0909C122.327 73.4848 123.956 73.1818 125.831 73.1818H135.561V95H129.922ZM116.058 95L122.123 83.6364H127.904L121.853 95H116.058ZM164.705 81.6761V86.4347H153.313V81.6761H164.705ZM155.301 73.1818V95H149.52V73.1818H155.301ZM168.498 73.1818V95H162.759V73.1818H168.498ZM179.414 95.4119C178.022 95.4119 176.781 95.1705 175.692 94.6875C174.603 94.1951 173.741 93.4706 173.107 92.5142C172.482 91.5483 172.169 90.3456 172.169 88.9062C172.169 87.6941 172.392 86.6761 172.837 85.8523C173.282 85.0284 173.888 84.3655 174.655 83.8636C175.422 83.3617 176.293 82.983 177.269 82.7273C178.254 82.4716 179.286 82.2917 180.365 82.1875C181.634 82.0549 182.657 81.9318 183.434 81.8182C184.21 81.6951 184.774 81.5152 185.124 81.2784C185.474 81.0417 185.65 80.6913 185.65 80.2273V80.142C185.65 79.2424 185.365 78.5464 184.797 78.054C184.239 77.5616 183.443 77.3153 182.411 77.3153C181.322 77.3153 180.455 77.5568 179.811 78.0398C179.167 78.5133 178.741 79.1098 178.533 79.8295L172.936 79.375C173.221 78.0492 173.779 76.9034 174.613 75.9375C175.446 74.9621 176.521 74.214 177.837 73.6932C179.163 73.1629 180.697 72.8977 182.439 72.8977C183.651 72.8977 184.811 73.0398 185.919 73.3239C187.037 73.608 188.026 74.0483 188.888 74.6449C189.759 75.2415 190.446 76.0085 190.948 76.946C191.45 77.8741 191.701 78.9867 191.701 80.2841V95H185.962V91.9744H185.792C185.441 92.6562 184.972 93.2576 184.385 93.7784C183.798 94.2898 183.093 94.6922 182.269 94.9858C181.445 95.2699 180.493 95.4119 179.414 95.4119ZM181.147 91.2358C182.037 91.2358 182.823 91.0606 183.505 90.7102C184.186 90.3504 184.721 89.8674 185.11 89.2614C185.498 88.6553 185.692 87.9687 185.692 87.2017V84.8864C185.503 85.0095 185.242 85.1231 184.911 85.2273C184.589 85.322 184.224 85.4119 183.817 85.4972C183.41 85.5729 183.003 85.6439 182.596 85.7102C182.188 85.767 181.819 85.8191 181.488 85.8665C180.777 85.9706 180.157 86.1364 179.627 86.3636C179.096 86.5909 178.685 86.8987 178.391 87.2869C178.097 87.6657 177.951 88.1392 177.951 88.7074C177.951 89.5312 178.249 90.161 178.846 90.5966C179.452 91.0227 180.219 91.2358 181.147 91.2358ZM215.33 73.1818V95H209.591V73.1818H215.33ZM212.532 82.7557V87.5284C212.068 87.7367 211.49 87.9356 210.799 88.125C210.107 88.3049 209.383 88.4517 208.625 88.5653C207.868 88.679 207.158 88.7358 206.495 88.7358C203.36 88.7358 200.893 88.0919 199.094 86.804C197.295 85.5066 196.395 83.4375 196.395 80.5966V73.1534H202.105V80.5966C202.105 81.4394 202.248 82.107 202.532 82.5994C202.825 83.0919 203.289 83.447 203.924 83.6648C204.568 83.8731 205.425 83.9773 206.495 83.9773C207.489 83.9773 208.464 83.8731 209.421 83.6648C210.377 83.4564 211.414 83.1534 212.532 82.7557ZM226.25 95.4119C224.858 95.4119 223.617 95.1705 222.528 94.6875C221.439 94.1951 220.577 93.4706 219.943 92.5142C219.318 91.5483 219.005 90.3456 219.005 88.9062C219.005 87.6941 219.228 86.6761 219.673 85.8523C220.118 85.0284 220.724 84.3655 221.491 83.8636C222.258 83.3617 223.129 82.983 224.105 82.7273C225.09 82.4716 226.122 82.2917 227.201 82.1875C228.47 82.0549 229.493 81.9318 230.27 81.8182C231.046 81.6951 231.609 81.5152 231.96 81.2784C232.31 81.0417 232.485 80.6913 232.485 80.2273V80.142C232.485 79.2424 232.201 78.5464 231.633 78.054C231.074 77.5616 230.279 77.3153 229.247 77.3153C228.158 77.3153 227.291 77.5568 226.647 78.0398C226.003 78.5133 225.577 79.1098 225.369 79.8295L219.772 79.375C220.056 78.0492 220.615 76.9034 221.449 75.9375C222.282 74.9621 223.357 74.214 224.673 73.6932C225.999 73.1629 227.533 72.8977 229.275 72.8977C230.487 72.8977 231.647 73.0398 232.755 73.3239C233.873 73.608 234.862 74.0483 235.724 74.6449C236.595 75.2415 237.282 76.0085 237.784 76.946C238.286 77.8741 238.537 78.9867 238.537 80.2841V95H232.798V91.9744H232.627C232.277 92.6562 231.808 93.2576 231.221 93.7784C230.634 94.2898 229.929 94.6922 229.105 94.9858C228.281 95.2699 227.329 95.4119 226.25 95.4119ZM227.983 91.2358C228.873 91.2358 229.659 91.0606 230.341 90.7102C231.022 90.3504 231.557 89.8674 231.946 89.2614C232.334 88.6553 232.528 87.9687 232.528 87.2017V84.8864C232.339 85.0095 232.078 85.1231 231.747 85.2273C231.425 85.322 231.06 85.4119 230.653 85.4972C230.246 85.5729 229.839 85.6439 229.431 85.7102C229.024 85.767 228.655 85.8191 228.324 85.8665C227.613 85.9706 226.993 86.1364 226.463 86.3636C225.932 86.5909 225.52 86.8987 225.227 87.2869C224.933 87.6657 224.787 88.1392 224.787 88.7074C224.787 89.5312 225.085 90.161 225.681 90.5966C226.288 91.0227 227.055 91.2358 227.983 91.2358ZM241.953 95L241.924 90.1989H242.649C243.16 90.1989 243.6 90.0758 243.97 89.8295C244.349 89.5739 244.661 89.1619 244.907 88.5938C245.154 88.0256 245.348 87.2727 245.49 86.3352C245.632 85.3883 245.726 84.2235 245.774 82.8409L246.129 73.1818H262.72V95H256.953V77.9403H251.569L251.228 84.6023C251.143 86.4299 250.921 88.0019 250.561 89.3182C250.21 90.6345 249.723 91.714 249.098 92.5568C248.473 93.3902 247.72 94.0057 246.839 94.4034C245.958 94.8011 244.936 95 243.771 95H241.953ZM273.632 95.4119C272.24 95.4119 271 95.1705 269.911 94.6875C268.822 94.1951 267.96 93.4706 267.326 92.5142C266.701 91.5483 266.388 90.3456 266.388 88.9062C266.388 87.6941 266.611 86.6761 267.056 85.8523C267.501 85.0284 268.107 84.3655 268.874 83.8636C269.641 83.3617 270.512 82.983 271.488 82.7273C272.472 82.4716 273.505 82.2917 274.584 82.1875C275.853 82.0549 276.876 81.9318 277.652 81.8182C278.429 81.6951 278.992 81.5152 279.343 81.2784C279.693 81.0417 279.868 80.6913 279.868 80.2273V80.142C279.868 79.2424 279.584 78.5464 279.016 78.054C278.457 77.5616 277.662 77.3153 276.63 77.3153C275.541 77.3153 274.674 77.5568 274.03 78.0398C273.386 78.5133 272.96 79.1098 272.752 79.8295L267.155 79.375C267.439 78.0492 267.998 76.9034 268.831 75.9375C269.665 74.9621 270.739 74.214 272.056 73.6932C273.382 73.1629 274.916 72.8977 276.658 72.8977C277.87 72.8977 279.03 73.0398 280.138 73.3239C281.256 73.608 282.245 74.0483 283.107 74.6449C283.978 75.2415 284.665 76.0085 285.167 76.946C285.668 77.8741 285.919 78.9867 285.919 80.2841V95H280.181V91.9744H280.01C279.66 92.6562 279.191 93.2576 278.604 93.7784C278.017 94.2898 277.311 94.6922 276.488 94.9858C275.664 95.2699 274.712 95.4119 273.632 95.4119ZM275.365 91.2358C276.256 91.2358 277.042 91.0606 277.723 90.7102C278.405 90.3504 278.94 89.8674 279.328 89.2614C279.717 88.6553 279.911 87.9687 279.911 87.2017V84.8864C279.721 85.0095 279.461 85.1231 279.13 85.2273C278.808 85.322 278.443 85.4119 278.036 85.4972C277.629 85.5729 277.221 85.6439 276.814 85.7102C276.407 85.767 276.038 85.8191 275.706 85.8665C274.996 85.9706 274.376 86.1364 273.846 86.3636C273.315 86.5909 272.903 86.8987 272.61 87.2869C272.316 87.6657 272.169 88.1392 272.169 88.7074C272.169 89.5312 272.468 90.161 273.064 90.5966C273.67 91.0227 274.437 91.2358 275.365 91.2358ZM315.056 81.6761V86.4347H303.664V81.6761H315.056ZM305.653 73.1818V95H299.872V73.1818H305.653ZM318.849 73.1818V95H313.11V73.1818H318.849ZM329.765 95.4119C328.373 95.4119 327.133 95.1705 326.044 94.6875C324.955 94.1951 324.093 93.4706 323.458 92.5142C322.833 91.5483 322.521 90.3456 322.521 88.9062C322.521 87.6941 322.743 86.6761 323.189 85.8523C323.634 85.0284 324.24 84.3655 325.007 83.8636C325.774 83.3617 326.645 82.983 327.62 82.7273C328.605 82.4716 329.637 82.2917 330.717 82.1875C331.986 82.0549 333.009 81.9318 333.785 81.8182C334.562 81.6951 335.125 81.5152 335.475 81.2784C335.826 81.0417 336.001 80.6913 336.001 80.2273V80.142C336.001 79.2424 335.717 78.5464 335.149 78.054C334.59 77.5616 333.795 77.3153 332.762 77.3153C331.673 77.3153 330.807 77.5568 330.163 78.0398C329.519 78.5133 329.093 79.1098 328.885 79.8295L323.288 79.375C323.572 78.0492 324.131 76.9034 324.964 75.9375C325.797 74.9621 326.872 74.214 328.189 73.6932C329.514 73.1629 331.048 72.8977 332.791 72.8977C334.003 72.8977 335.163 73.0398 336.271 73.3239C337.388 73.608 338.378 74.0483 339.24 74.6449C340.111 75.2415 340.797 76.0085 341.299 76.946C341.801 77.8741 342.052 78.9867 342.052 80.2841V95H336.314V91.9744H336.143C335.793 92.6562 335.324 93.2576 334.737 93.7784C334.15 94.2898 333.444 94.6922 332.62 94.9858C331.797 95.2699 330.845 95.4119 329.765 95.4119ZM331.498 91.2358C332.388 91.2358 333.174 91.0606 333.856 90.7102C334.538 90.3504 335.073 89.8674 335.461 89.2614C335.85 88.6553 336.044 87.9687 336.044 87.2017V84.8864C335.854 85.0095 335.594 85.1231 335.262 85.2273C334.94 85.322 334.576 85.4119 334.169 85.4972C333.761 85.5729 333.354 85.6439 332.947 85.7102C332.54 85.767 332.171 85.8191 331.839 85.8665C331.129 85.9706 330.509 86.1364 329.978 86.3636C329.448 86.5909 329.036 86.8987 328.743 87.2869C328.449 87.6657 328.302 88.1392 328.302 88.7074C328.302 89.5312 328.6 90.161 329.197 90.5966C329.803 91.0227 330.57 91.2358 331.498 91.2358ZM345.326 95L352.954 83.6506L345.369 73.1818H352.272L357.94 81.7188H358.877V73.1818H364.929V81.7188H365.838L371.505 73.1818H378.409L370.838 83.6506L378.451 95H371.392L365.781 86.4773H364.929V95H358.877V86.4773H358.025L352.386 95H345.326ZM394.762 88.3097L400.671 73.1818H405.273L396.765 95H392.745L384.435 73.1818H389.023L394.762 88.3097ZM387.645 73.1818V95H381.864V73.1818H387.645ZM402.176 95V73.1818H407.887V95H402.176ZM418.348 87.017L426.203 73.1818H432.169V95H426.402V81.1222L418.576 95H412.567V73.1818H418.348V87.017ZM434.829 77.9403V73.1818H454.602V77.9403H447.571V95H441.804V77.9403H434.829ZM467.432 95.4261C465.188 95.4261 463.256 94.9716 461.637 94.0625C460.027 93.1439 458.786 91.8466 457.915 90.1705C457.044 88.4848 456.608 86.4915 456.608 84.1903C456.608 81.946 457.044 79.9763 457.915 78.2812C458.786 76.5862 460.013 75.2652 461.594 74.3182C463.185 73.3712 465.051 72.8977 467.191 72.8977C468.63 72.8977 469.97 73.1297 471.211 73.5938C472.461 74.0483 473.55 74.7348 474.478 75.6534C475.415 76.572 476.144 77.7273 476.665 79.1193C477.186 80.5019 477.446 82.1212 477.446 83.9773V85.6392H459.023V81.8892H471.75C471.75 81.018 471.561 80.2462 471.182 79.5739C470.803 78.9015 470.278 78.3759 469.605 77.9972C468.943 77.6089 468.171 77.4148 467.29 77.4148C466.372 77.4148 465.557 77.6278 464.847 78.054C464.146 78.4706 463.597 79.0341 463.199 79.7443C462.801 80.4451 462.598 81.2263 462.588 82.0881V85.6534C462.588 86.733 462.787 87.6657 463.185 88.4517C463.592 89.2377 464.165 89.8438 464.904 90.2699C465.642 90.696 466.518 90.9091 467.532 90.9091C468.204 90.9091 468.819 90.8144 469.378 90.625C469.937 90.4356 470.415 90.1515 470.813 89.7727C471.211 89.3939 471.514 88.9299 471.722 88.3807L477.319 88.75C477.034 90.0947 476.452 91.2689 475.571 92.2727C474.7 93.267 473.573 94.0436 472.191 94.6023C470.818 95.1515 469.231 95.4261 467.432 95.4261Z" fill="url(#paint0_linear_59_5)"/>
<path d="M546.571 277.969C548.211 278.206 549.732 277.069 549.969 275.429L553.831 248.707C554.068 247.067 552.931 245.545 551.291 245.308C549.651 245.071 548.129 246.209 547.892 247.849L544.46 271.602L520.707 268.169C519.067 267.932 517.545 269.069 517.308 270.709C517.071 272.349 518.209 273.871 519.849 274.108L546.571 277.969ZM470.597 177.796L544.597 276.796L549.403 273.204L475.403 174.204L470.597 177.796Z" fill="#C50D66"/>
<defs>
<linearGradient id="paint0_linear_59_5" x1="269" y1="56" x2="269" y2="104" gradientUnits="userSpaceOnUse">
<stop stop-color="#C50D66"/>
<stop offset="1" stop-color="#F07810"/>
</linearGradient>
</defs>
</svg>
