<svg width="46" height="47" viewBox="0 0 46 47" fill="none" xmlns="http://www.w3.org/2000/svg">
<ellipse cx="22.6774" cy="23.4973" rx="22.6452" ry="23.4973" fill="#C50D66"/>
<g clip-path="url(#clip0_11_667)">
<path d="M8.17544 32.0973C7.25786 33.0491 6.74222 34.3401 6.74194 35.6864V38.292H9.25301C10.5505 38.2917 11.7947 37.7566 12.712 36.8045L29.0321 19.8703L24.4955 15.1631L8.17544 32.0973Z" fill="#F5F4E8"/>
<path d="M35.051 8.91778C34.7532 8.60841 34.3995 8.36298 34.0102 8.19553C33.6208 8.02808 33.2035 7.94189 32.7821 7.94189C32.3607 7.94189 31.9434 8.02808 31.5541 8.19553C31.1648 8.36298 30.8111 8.60841 30.5132 8.91778L26.225 13.3687L30.7615 18.0759L35.051 13.6263C35.3492 13.3173 35.5857 12.9503 35.7471 12.5463C35.9084 12.1423 35.9915 11.7093 35.9915 11.272C35.9915 10.8348 35.9084 10.4017 35.7471 9.99779C35.5857 9.59383 35.3492 9.22683 35.051 8.91778Z" fill="#F5F4E8"/>
</g>
<defs>
<clipPath id="clip0_11_667">
<rect width="29.3548" height="30.4595" fill="white" transform="translate(6.74194 7.83252)"/>
</clipPath>
</defs>
</svg>
