<svg width="300" height="100" viewBox="0 0 300 100" fill="none" xmlns="http://www.w3.org/2000/svg">
<path d="M0 50C0 22.3858 22.3858 0 50 0H250C277.614 0 300 22.3858 300 50C300 77.6142 277.614 100 250 100H50C22.3858 100 0 77.6142 0 50Z" fill="url(#paint0_linear_6_467)"/>
<path d="M34.2756 63V36.8182H44.6051C46.5909 36.8182 48.2827 37.1974 49.6804 37.956C51.0781 38.706 52.1435 39.75 52.8764 41.0881C53.6179 42.4176 53.9886 43.9517 53.9886 45.6903C53.9886 47.429 53.6136 48.9631 52.8636 50.2926C52.1136 51.6222 51.027 52.6577 49.6037 53.3991C48.1889 54.1406 46.4759 54.5114 44.4645 54.5114H37.8807V50.0753H43.5696C44.6349 50.0753 45.5128 49.892 46.2031 49.5256C46.902 49.1506 47.4219 48.6349 47.7628 47.9787C48.1122 47.3139 48.2869 46.5511 48.2869 45.6903C48.2869 44.821 48.1122 44.0625 47.7628 43.4148C47.4219 42.7585 46.902 42.2514 46.2031 41.8935C45.5043 41.527 44.6179 41.3438 43.544 41.3438H39.8111V63H34.2756ZM66.1143 63.3835C64.0945 63.3835 62.3558 62.9744 60.8984 62.1562C59.4496 61.3295 58.3331 60.1619 57.549 58.6534C56.7649 57.1364 56.3729 55.3423 56.3729 53.2713C56.3729 51.2514 56.7649 49.4787 57.549 47.9531C58.3331 46.4276 59.4368 45.2386 60.8601 44.3864C62.2919 43.5341 63.9709 43.108 65.897 43.108C67.1925 43.108 68.3984 43.3168 69.5149 43.7344C70.6399 44.1435 71.62 44.7614 72.4553 45.5881C73.299 46.4148 73.9553 47.4545 74.424 48.7074C74.8928 49.9517 75.1271 51.4091 75.1271 53.0795V54.5753H58.5462V51.2003H70.0007C70.0007 50.4162 69.8303 49.7216 69.4893 49.1165C69.1484 48.5114 68.6754 48.0384 68.0703 47.6974C67.4737 47.348 66.7791 47.1733 65.9865 47.1733C65.1598 47.1733 64.4268 47.3651 63.7876 47.7486C63.157 48.1236 62.6626 48.6307 62.3047 49.2699C61.9467 49.9006 61.7635 50.6037 61.755 51.3793V54.5881C61.755 55.5597 61.9339 56.3991 62.2919 57.1065C62.6584 57.8139 63.174 58.3594 63.8388 58.7429C64.5036 59.1264 65.2919 59.3182 66.2038 59.3182C66.8089 59.3182 67.3629 59.233 67.8658 59.0625C68.3686 58.892 68.799 58.6364 69.157 58.2955C69.5149 57.9545 69.7876 57.5369 69.9751 57.0426L75.0121 57.375C74.7564 58.5852 74.2322 59.642 73.4396 60.5455C72.6555 61.4403 71.6413 62.1392 70.397 62.642C69.1612 63.1364 67.7337 63.3835 66.1143 63.3835ZM92.13 43.3636V47.6463H83.9737V63H78.6811V43.3636H92.13ZM100.654 55.8153L107.723 43.3636H113.093V63H107.902V50.5099L100.858 63H95.4506V43.3636H100.654V55.8153ZM126.331 63.3835C124.319 63.3835 122.589 62.9574 121.14 62.1051C119.7 61.2443 118.592 60.0511 117.816 58.5256C117.049 57 116.666 55.2443 116.666 53.2585C116.666 51.2472 117.054 49.483 117.829 47.9659C118.613 46.4403 119.725 45.2514 121.166 44.3991C122.606 43.5384 124.319 43.108 126.305 43.108C128.018 43.108 129.518 43.419 130.805 44.0412C132.092 44.6634 133.11 45.5369 133.86 46.6619C134.61 47.7869 135.024 49.108 135.1 50.625H129.961C129.816 49.6449 129.433 48.8565 128.811 48.2599C128.197 47.6548 127.392 47.3523 126.395 47.3523C125.551 47.3523 124.814 47.5824 124.183 48.0426C123.561 48.4943 123.075 49.1548 122.725 50.0241C122.376 50.8935 122.201 51.946 122.201 53.1818C122.201 54.4347 122.372 55.5 122.713 56.3778C123.062 57.2557 123.552 57.9247 124.183 58.3849C124.814 58.8452 125.551 59.0753 126.395 59.0753C127.017 59.0753 127.575 58.9474 128.069 58.6918C128.572 58.4361 128.985 58.0653 129.309 57.5795C129.642 57.0852 129.859 56.4929 129.961 55.8026H135.1C135.015 57.3026 134.606 58.6236 133.873 59.7656C133.149 60.8991 132.147 61.7855 130.869 62.4247C129.591 63.0639 128.078 63.3835 126.331 63.3835ZM137.248 47.6463V43.3636H155.044V47.6463H148.716V63H143.525V47.6463H137.248ZM158.345 70.3636V43.3636H163.714V46.6619H163.957C164.196 46.1335 164.541 45.5966 164.993 45.0511C165.453 44.4972 166.05 44.0369 166.783 43.6705C167.524 43.2955 168.445 43.108 169.544 43.108C170.976 43.108 172.297 43.483 173.507 44.233C174.717 44.9744 175.685 46.0952 176.409 47.5952C177.134 49.0866 177.496 50.9574 177.496 53.2074C177.496 55.3977 177.142 57.2472 176.435 58.7557C175.736 60.2557 174.781 61.3935 173.571 62.169C172.369 62.9361 171.023 63.3196 169.531 63.3196C168.474 63.3196 167.575 63.1449 166.834 62.7955C166.101 62.446 165.5 62.0071 165.031 61.4787C164.562 60.9418 164.205 60.4006 163.957 59.8551H163.791V70.3636H158.345ZM163.676 53.1818C163.676 54.3494 163.838 55.3679 164.162 56.2372C164.486 57.1065 164.955 57.7841 165.568 58.2699C166.182 58.7472 166.928 58.9858 167.805 58.9858C168.692 58.9858 169.442 58.7429 170.055 58.2571C170.669 57.7628 171.134 57.081 171.449 56.2116C171.773 55.3338 171.935 54.3239 171.935 53.1818C171.935 52.0483 171.777 51.0511 171.462 50.1903C171.146 49.3295 170.682 48.6562 170.068 48.1705C169.455 47.6847 168.7 47.4418 167.805 47.4418C166.919 47.4418 166.169 47.6761 165.555 48.1449C164.95 48.6136 164.486 49.2784 164.162 50.1392C163.838 51 163.676 52.0142 163.676 53.1818ZM186.726 63.3707C185.473 63.3707 184.357 63.1534 183.376 62.7188C182.396 62.2756 181.621 61.6236 181.05 60.7628C180.487 59.8935 180.206 58.8111 180.206 57.5156C180.206 56.4247 180.406 55.5085 180.807 54.767C181.207 54.0256 181.753 53.429 182.443 52.9773C183.134 52.5256 183.918 52.1847 184.795 51.9545C185.682 51.7244 186.611 51.5625 187.582 51.4688C188.724 51.3494 189.645 51.2386 190.344 51.1364C191.043 51.0256 191.55 50.8636 191.865 50.6506C192.18 50.4375 192.338 50.1222 192.338 49.7045V49.6278C192.338 48.8182 192.082 48.1918 191.571 47.7486C191.068 47.3054 190.352 47.0838 189.423 47.0838C188.443 47.0838 187.663 47.3011 187.084 47.7358C186.504 48.1619 186.121 48.6989 185.933 49.3466L180.896 48.9375C181.152 47.7443 181.655 46.7131 182.405 45.8438C183.155 44.9659 184.122 44.2926 185.307 43.8239C186.5 43.3466 187.881 43.108 189.449 43.108C190.54 43.108 191.584 43.2358 192.581 43.4915C193.587 43.7472 194.477 44.1435 195.253 44.6804C196.037 45.2173 196.655 45.9077 197.107 46.7514C197.558 47.5866 197.784 48.5881 197.784 49.7557V63H192.619V60.277H192.466C192.151 60.8906 191.729 61.4318 191.2 61.9006C190.672 62.3608 190.037 62.723 189.295 62.9872C188.554 63.2429 187.697 63.3707 186.726 63.3707ZM188.286 59.6122C189.087 59.6122 189.794 59.4545 190.408 59.1392C191.021 58.8153 191.503 58.3807 191.852 57.8352C192.202 57.2898 192.376 56.6719 192.376 55.9815V53.8977C192.206 54.0085 191.972 54.1108 191.673 54.2045C191.384 54.2898 191.055 54.3707 190.689 54.4474C190.322 54.5156 189.956 54.5795 189.589 54.6392C189.223 54.6903 188.891 54.7372 188.592 54.7798C187.953 54.8736 187.395 55.0227 186.918 55.2273C186.44 55.4318 186.07 55.7088 185.805 56.0582C185.541 56.3991 185.409 56.8253 185.409 57.3366C185.409 58.0781 185.678 58.6449 186.214 59.0369C186.76 59.4205 187.45 59.6122 188.286 59.6122ZM219.178 43.3636V59.2415H222.31V69.3153H217.018V63H202.009V43.3636H207.212V58.7173H214.039V43.3636H219.178ZM230.873 55.8153L237.942 43.3636H243.311V63H238.121V50.5099L231.077 63H225.669V43.3636H230.873V55.8153ZM259.183 63V47.6335H255.501C254.504 47.6335 253.745 47.8636 253.225 48.3239C252.706 48.7841 252.45 49.3295 252.458 49.9602C252.45 50.5994 252.697 51.1406 253.2 51.5838C253.711 52.0185 254.461 52.2358 255.45 52.2358H260.998V55.9176H255.45C253.771 55.9176 252.318 55.6619 251.091 55.1506C249.863 54.6392 248.917 53.9276 248.252 53.0156C247.588 52.0952 247.26 51.0256 247.268 49.8068C247.26 48.5284 247.588 47.4077 248.252 46.4446C248.917 45.473 249.868 44.7187 251.103 44.1818C252.348 43.6364 253.814 43.3636 255.501 43.3636H264.258V63H259.183ZM246.706 63L252.164 52.7727H257.368L251.922 63H246.706Z" fill="white"/>
<defs>
<linearGradient id="paint0_linear_6_467" x1="150" y1="0" x2="150" y2="100" gradientUnits="userSpaceOnUse">
<stop stop-color="#C50D66"/>
<stop offset="1" stop-color="#F07810"/>
</linearGradient>
</defs>
</svg>
