<svg width="83" height="83" viewBox="0 0 83 83" fill="none" xmlns="http://www.w3.org/2000/svg">
<circle cx="41.5" cy="41.5" r="41.5" fill="#F07810"/>
<g clip-path="url(#clip0_6_600)">
<path d="M38.5302 33.6536C38.9895 34.0259 39.5349 34.3213 40.1352 34.5228C40.7356 34.7243 41.379 34.828 42.0288 34.828C42.6786 34.828 43.3221 34.7243 43.9224 34.5228C44.5227 34.3213 45.0681 34.0259 45.5274 33.6536L50.8215 29.3653C51.1054 29.111 51.2576 28.7781 51.2468 28.4354C51.2359 28.0926 51.0627 27.7664 50.7632 27.5243C50.4636 27.2821 50.0605 27.1426 49.6374 27.1345C49.2143 27.1264 48.8035 27.2505 48.4902 27.4809L43.666 31.3899L43.6775 10.7872C43.6775 10.433 43.5038 10.0933 43.1946 9.84282C42.8854 9.59236 42.4661 9.45166 42.0288 9.45166C41.5915 9.45166 41.1722 9.59236 40.863 9.84282C40.5538 10.0933 40.3801 10.433 40.3801 10.7872L40.3652 31.3646L35.5674 27.4809C35.258 27.2305 34.8385 27.0899 34.4012 27.09C33.9638 27.0902 33.5444 27.231 33.2353 27.4816C32.9261 27.7322 32.7525 28.072 32.7527 28.4263C32.7528 28.7805 32.9267 29.1202 33.2361 29.3707L38.5302 33.6536Z" fill="#F5F4E8"/>
<path d="M60.3333 29.6665C59.8913 29.6665 59.4674 29.8421 59.1548 30.1547C58.8423 30.4672 58.6667 30.8911 58.6667 31.3332V37.9998C58.6667 38.4419 58.4911 38.8658 58.1785 39.1784C57.866 39.4909 57.442 39.6665 57 39.6665H27C26.558 39.6665 26.134 39.4909 25.8215 39.1784C25.5089 38.8658 25.3333 38.4419 25.3333 37.9998V31.3332C25.3333 30.8911 25.1577 30.4672 24.8452 30.1547C24.5326 29.8421 24.1087 29.6665 23.6667 29.6665C23.2246 29.6665 22.8007 29.8421 22.4882 30.1547C22.1756 30.4672 22 30.8911 22 31.3332V37.9998C22 39.3259 22.5268 40.5977 23.4645 41.5354C24.4021 42.4731 25.6739 42.9998 27 42.9998H57C58.3261 42.9998 59.5979 42.4731 60.5355 41.5354C61.4732 40.5977 62 39.3259 62 37.9998V31.3332C62 30.8911 61.8244 30.4672 61.5118 30.1547C61.1993 29.8421 60.7754 29.6665 60.3333 29.6665Z" fill="#F5F4E8"/>
</g>
<path d="M35.0909 54.1875C34.9716 53.7727 34.804 53.4062 34.5881 53.0881C34.3722 52.7642 34.108 52.4915 33.7955 52.2699C33.4886 52.0426 33.1364 51.8693 32.7386 51.75C32.3466 51.6307 31.9119 51.571 31.4347 51.571C30.5426 51.571 29.7585 51.7926 29.0824 52.2358C28.4119 52.679 27.8892 53.3239 27.5142 54.1705C27.1392 55.0114 26.9517 56.0398 26.9517 57.2557C26.9517 58.4716 27.1364 59.5057 27.5057 60.358C27.875 61.2102 28.3977 61.8608 29.0739 62.3097C29.75 62.7528 30.5483 62.9744 31.4688 62.9744C32.304 62.9744 33.017 62.8267 33.608 62.5312C34.2045 62.2301 34.6591 61.8068 34.9716 61.2614C35.2898 60.7159 35.4489 60.071 35.4489 59.3267L36.1989 59.4375H31.6989V56.6591H39.0028V58.858C39.0028 60.392 38.679 61.7102 38.0312 62.8125C37.3835 63.9091 36.4915 64.7557 35.3551 65.3523C34.2188 65.9432 32.9176 66.2386 31.4517 66.2386C29.8153 66.2386 28.3778 65.8778 27.1392 65.1562C25.9006 64.429 24.9347 63.3977 24.2415 62.0625C23.554 60.7216 23.2102 59.1307 23.2102 57.2898C23.2102 55.875 23.4148 54.6136 23.8239 53.5057C24.2386 52.392 24.8182 51.4489 25.5625 50.6761C26.3068 49.9034 27.1733 49.3153 28.1619 48.9119C29.1506 48.5085 30.2216 48.3068 31.375 48.3068C32.3636 48.3068 33.2841 48.4517 34.1364 48.7415C34.9886 49.0256 35.7443 49.429 36.4034 49.9517C37.0682 50.4744 37.6108 51.0966 38.0312 51.8182C38.4517 52.5341 38.7216 53.3239 38.8409 54.1875H35.0909ZM45.4652 48.5455V66H41.7749V48.5455H45.4652ZM48.5014 66V48.5455H60.0582V51.5881H52.1918V55.7472H59.2912V58.7898H52.1918V66H48.5014Z" fill="white"/>
<defs>
<clipPath id="clip0_6_600">
<rect width="40" height="40" fill="white" transform="translate(22 3)"/>
</clipPath>
</defs>
</svg>
