<svg width="56" height="56" viewBox="0 0 56 56" fill="none" xmlns="http://www.w3.org/2000/svg">
<g clip-path="url(#clip0_6_489)">
<path d="M2.28882e-05 52.7006L14.6114 38.0893C10.8159 33.4474 8.9498 27.5242 9.39905 21.545C9.8483 15.5657 12.5785 9.98788 17.025 5.96519C21.4715 1.9425 27.294 -0.217272 33.2882 -0.0673976C39.2824 0.0824766 44.9897 2.53053 49.2296 6.77041C53.4695 11.0103 55.9175 16.7176 56.0674 22.7118C56.2173 28.706 54.0575 34.5285 50.0348 38.975C46.0121 43.4215 40.4343 46.1517 34.455 46.6009C28.4758 47.0502 22.5526 45.1841 17.9107 41.3886L3.29935 56L2.28882e-05 52.7006ZM32.6667 42C36.3586 42 39.9676 40.9052 43.0373 38.8541C46.1071 36.803 48.4996 33.8876 49.9124 30.4767C51.3253 27.0658 51.6949 23.3126 50.9747 19.6916C50.2544 16.0706 48.4766 12.7446 45.866 10.134C43.2554 7.52341 39.9294 5.74558 36.3084 5.02532C32.6874 4.30506 28.9342 4.67472 25.5233 6.08756C22.1124 7.5004 19.197 9.89295 17.1459 12.9627C15.0948 16.0324 14 19.6414 14 23.3333C14.0056 28.2823 15.974 33.027 19.4735 36.5265C22.973 40.026 27.7177 41.9944 32.6667 42Z" fill="#F07810" fill-opacity="0.3"/>
</g>
<defs>
<clipPath id="clip0_6_489">
<rect width="56" height="56" fill="white" transform="matrix(-1 0 0 1 56 0)"/>
</clipPath>
</defs>
</svg>
