<svg width="300" height="100" viewBox="0 0 300 100" fill="none" xmlns="http://www.w3.org/2000/svg">
<path d="M0 50C0 22.3858 22.3858 0 50 0H250C277.614 0 300 22.3858 300 50C300 77.6142 277.614 100 250 100H50C22.3858 100 0 77.6142 0 50Z" fill="url(#paint0_linear_6_424)"/>
<path d="M94.2756 63V36.8182H104.759C106.685 36.8182 108.291 37.1037 109.578 37.6747C110.865 38.2457 111.832 39.0384 112.48 40.0526C113.128 41.0582 113.452 42.2173 113.452 43.5298C113.452 44.5526 113.247 45.4517 112.838 46.2273C112.429 46.9943 111.866 47.625 111.151 48.1193C110.443 48.6051 109.634 48.9503 108.722 49.1548V49.4105C109.719 49.4531 110.652 49.7344 111.521 50.2543C112.399 50.7741 113.111 51.5028 113.656 52.4403C114.202 53.3693 114.474 54.4773 114.474 55.7642C114.474 57.1534 114.129 58.3935 113.439 59.4844C112.757 60.5668 111.747 61.4233 110.409 62.054C109.071 62.6847 107.422 63 105.462 63H94.2756ZM99.8111 58.4744H104.324C105.866 58.4744 106.991 58.1804 107.699 57.5923C108.406 56.9957 108.76 56.2031 108.76 55.2145C108.76 54.4901 108.585 53.8509 108.236 53.2969C107.886 52.7429 107.388 52.3082 106.74 51.9929C106.101 51.6776 105.338 51.5199 104.452 51.5199H99.8111V58.4744ZM99.8111 47.7741H103.915C104.673 47.7741 105.347 47.642 105.935 47.3778C106.531 47.1051 107 46.7216 107.341 46.2273C107.69 45.733 107.865 45.1406 107.865 44.4503C107.865 43.5043 107.528 42.7415 106.855 42.1619C106.19 41.5824 105.244 41.2926 104.017 41.2926H99.8111V47.7741ZM121.387 49.3977H127.255C129.855 49.3977 131.883 50.0199 133.341 51.2642C134.798 52.5 135.527 54.1534 135.527 56.2244C135.527 57.571 135.199 58.7557 134.542 59.7784C133.886 60.7926 132.94 61.5852 131.704 62.1562C130.468 62.7188 128.985 63 127.255 63H117.974V43.3636H123.177V58.7173H127.255C128.167 58.7173 128.917 58.4872 129.505 58.027C130.093 57.5668 130.392 56.9787 130.4 56.2628C130.392 55.5043 130.093 54.8864 129.505 54.4091C128.917 53.9233 128.167 53.6804 127.255 53.6804H121.387V49.3977ZM137.636 63V43.3636H143.082V63H137.636ZM152.638 55.8153L159.708 43.3636H165.077V63H159.887V50.5099L152.843 63H147.435V43.3636H152.638V55.8153ZM158.775 36.5114H162.571C162.563 38.0625 161.988 39.3111 160.846 40.2571C159.712 41.2031 158.178 41.6761 156.243 41.6761C154.3 41.6761 152.762 41.2031 151.628 40.2571C150.495 39.3111 149.928 38.0625 149.928 36.5114H153.699C153.691 37.0994 153.878 37.6278 154.262 38.0966C154.654 38.5653 155.314 38.7997 156.243 38.7997C157.147 38.7997 157.794 38.5696 158.186 38.1094C158.578 37.6491 158.775 37.1165 158.775 36.5114ZM167.471 47.6463V43.3636H185.266V47.6463H178.938V63H173.748V47.6463H167.471ZM193.771 55.8153L200.841 43.3636H206.21V63H201.02V50.5099L193.975 63H188.568V43.3636H193.771V55.8153Z" fill="white"/>
<defs>
<linearGradient id="paint0_linear_6_424" x1="150" y1="0" x2="150" y2="100" gradientUnits="userSpaceOnUse">
<stop stop-color="#C50D66"/>
<stop offset="1" stop-color="#F07810"/>
</linearGradient>
</defs>
</svg>
