<svg width="285" height="50" viewBox="0 0 285 50" fill="none" xmlns="http://www.w3.org/2000/svg">
<rect width="285" height="50" rx="25" fill="url(#paint0_linear_42_111)"/>
<path d="M76.6838 35V8.81818H82.2193V19.6207H93.4565V8.81818H98.9792V35H93.4565V24.1847H82.2193V35H76.6838ZM109.04 35.3707C107.787 35.3707 106.671 35.1534 105.691 34.7188C104.711 34.2756 103.935 33.6236 103.364 32.7628C102.802 31.8935 102.52 30.8111 102.52 29.5156C102.52 28.4247 102.721 27.5085 103.121 26.767C103.522 26.0256 104.067 25.429 104.758 24.9773C105.448 24.5256 106.232 24.1847 107.11 23.9545C107.996 23.7244 108.925 23.5625 109.897 23.4688C111.039 23.3494 111.959 23.2386 112.658 23.1364C113.357 23.0256 113.864 22.8636 114.18 22.6506C114.495 22.4375 114.653 22.1222 114.653 21.7045V21.6278C114.653 20.8182 114.397 20.1918 113.885 19.7486C113.383 19.3054 112.667 19.0838 111.738 19.0838C110.758 19.0838 109.978 19.3011 109.398 19.7358C108.819 20.1619 108.435 20.6989 108.248 21.3466L103.211 20.9375C103.466 19.7443 103.969 18.7131 104.719 17.8438C105.469 16.9659 106.437 16.2926 107.621 15.8239C108.814 15.3466 110.195 15.108 111.763 15.108C112.854 15.108 113.898 15.2358 114.895 15.4915C115.901 15.7472 116.792 16.1435 117.567 16.6804C118.351 17.2173 118.969 17.9077 119.421 18.7514C119.873 19.5866 120.099 20.5881 120.099 21.7557V35H114.934V32.277H114.78C114.465 32.8906 114.043 33.4318 113.515 33.9006C112.986 34.3608 112.351 34.723 111.61 34.9872C110.868 35.2429 110.012 35.3707 109.04 35.3707ZM110.6 31.6122C111.401 31.6122 112.108 31.4545 112.722 31.1392C113.336 30.8153 113.817 30.3807 114.167 29.8352C114.516 29.2898 114.691 28.6719 114.691 27.9815V25.8977C114.52 26.0085 114.286 26.1108 113.988 26.2045C113.698 26.2898 113.37 26.3707 113.003 26.4474C112.637 26.5156 112.27 26.5795 111.904 26.6392C111.537 26.6903 111.205 26.7372 110.907 26.7798C110.268 26.8736 109.709 27.0227 109.232 27.2273C108.755 27.4318 108.384 27.7088 108.12 28.0582C107.856 28.3991 107.724 28.8253 107.724 29.3366C107.724 30.0781 107.992 30.6449 108.529 31.0369C109.074 31.4205 109.765 31.6122 110.6 31.6122ZM141.365 15.3636V35H136.2V15.3636H141.365ZM138.846 23.9801V28.2756C138.429 28.4631 137.909 28.642 137.287 28.8125C136.665 28.9744 136.013 29.1065 135.331 29.2088C134.649 29.3111 134.01 29.3622 133.413 29.3622C130.592 29.3622 128.372 28.7827 126.753 27.6236C125.133 26.456 124.324 24.5937 124.324 22.0369V15.3381H129.463V22.0369C129.463 22.7955 129.591 23.3963 129.846 23.8395C130.111 24.2827 130.528 24.6023 131.099 24.7983C131.679 24.9858 132.45 25.0795 133.413 25.0795C134.308 25.0795 135.186 24.9858 136.047 24.7983C136.907 24.6108 137.841 24.3381 138.846 23.9801ZM151.193 35.3707C149.94 35.3707 148.823 35.1534 147.843 34.7188C146.863 34.2756 146.088 33.6236 145.517 32.7628C144.954 31.8935 144.673 30.8111 144.673 29.5156C144.673 28.4247 144.873 27.5085 145.274 26.767C145.674 26.0256 146.22 25.429 146.91 24.9773C147.6 24.5256 148.384 24.1847 149.262 23.9545C150.149 23.7244 151.078 23.5625 152.049 23.4688C153.191 23.3494 154.112 23.2386 154.811 23.1364C155.509 23.0256 156.017 22.8636 156.332 22.6506C156.647 22.4375 156.805 22.1222 156.805 21.7045V21.6278C156.805 20.8182 156.549 20.1918 156.038 19.7486C155.535 19.3054 154.819 19.0838 153.89 19.0838C152.91 19.0838 152.13 19.3011 151.551 19.7358C150.971 20.1619 150.588 20.6989 150.4 21.3466L145.363 20.9375C145.619 19.7443 146.122 18.7131 146.872 17.8438C147.622 16.9659 148.589 16.2926 149.774 15.8239C150.967 15.3466 152.347 15.108 153.916 15.108C155.007 15.108 156.051 15.2358 157.048 15.4915C158.053 15.7472 158.944 16.1435 159.72 16.6804C160.504 17.2173 161.122 17.9077 161.573 18.7514C162.025 19.5866 162.251 20.5881 162.251 21.7557V35H157.086V32.277H156.933C156.617 32.8906 156.195 33.4318 155.667 33.9006C155.139 34.3608 154.504 34.723 153.762 34.9872C153.021 35.2429 152.164 35.3707 151.193 35.3707ZM152.752 31.6122C153.553 31.6122 154.261 31.4545 154.874 31.1392C155.488 30.8153 155.97 30.3807 156.319 29.8352C156.669 29.2898 156.843 28.6719 156.843 27.9815V25.8977C156.673 26.0085 156.438 26.1108 156.14 26.2045C155.85 26.2898 155.522 26.3707 155.156 26.4474C154.789 26.5156 154.423 26.5795 154.056 26.6392C153.69 26.6903 153.357 26.7372 153.059 26.7798C152.42 26.8736 151.862 27.0227 151.384 27.2273C150.907 27.4318 150.536 27.7088 150.272 28.0582C150.008 28.3991 149.876 28.8253 149.876 29.3366C149.876 30.0781 150.144 30.6449 150.681 31.0369C151.227 31.4205 151.917 31.6122 152.752 31.6122ZM164.504 19.6463V15.3636H182.3V19.6463H175.971V35H170.781V19.6463H164.504ZM189.014 21.3977H194.882C197.482 21.3977 199.51 22.0199 200.968 23.2642C202.425 24.5 203.154 26.1534 203.154 28.2244C203.154 29.571 202.825 30.7557 202.169 31.7784C201.513 32.7926 200.567 33.5852 199.331 34.1562C198.095 34.7188 196.612 35 194.882 35H185.601V15.3636H190.804V30.7173H194.882C195.794 30.7173 196.544 30.4872 197.132 30.027C197.72 29.5668 198.019 28.9787 198.027 28.2628C198.019 27.5043 197.72 26.8864 197.132 26.4091C196.544 25.9233 195.794 25.6804 194.882 25.6804H189.014V21.3977Z" fill="#F5F4E8"/>
<defs>
<linearGradient id="paint0_linear_42_111" x1="142.5" y1="0" x2="142.5" y2="50" gradientUnits="userSpaceOnUse">
<stop stop-color="#C50D66"/>
<stop offset="1" stop-color="#F07810"/>
</linearGradient>
</defs>
</svg>
